# FILE W 386.obj
mtllib W 386.mtl
trace_obj W 386.obj
shadow_obj W 386.obj

g Конструктив_-_Стены_Несущие Кирпич_-_Красный

usemtl Кирпич_-_Красный

v 0 -250 -88.946
v 2000 -250 -88.946
v 2000 -248.168 -87.7293
v 0 -248.168 -87.7293
v 0 -248.168 -87.7293
v 2000 -248.168 -87.7293
v 2000 -245.221 -89.6269
v 0 -245.221 -89.6269
v 0 -245.221 -89.6269
v 2000 -245.221 -89.6269
v 2000 -241.933 -91.163
v 0 -241.933 -91.163
v 0 -241.933 -91.163
v 2000 -241.933 -91.163
v 2000 -238.618 -92.3083
v 0 -238.618 -92.3083
v 0 -238.618 -92.3083
v 2000 -238.618 -92.3083
v 2000 -235.227 -93.0691
v 0 -235.227 -93.0691
v 0 -235.227 -93.0691
v 2000 -235.227 -93.0691
v 2000 -231.669 -93.4437
v 0 -231.669 -93.4437
v 0 -231.669 -93.4437
v 2000 -231.669 -93.4437
v 2000 -228.074 -93.4437
v 0 -228.074 -93.4437
v 0 -228.074 -93.4437
v 2000 -228.074 -93.4437
v 2000 -224.574 -93.0192
v 0 -224.574 -93.0192
v 0 -224.574 -93.0192
v 2000 -224.574 -93.0192
v 2000 -221.058 -92.2209
v 0 -221.058 -92.2209
v 0 -221.058 -92.2209
v 2000 -221.058 -92.2209
v 2000 -217.738 -91.0167
v 0 -217.738 -91.0167
v 0 -217.738 -91.0167
v 2000 -217.738 -91.0167
v 2000 -214.56 -89.4175
v 0 -214.56 -89.4175
v 0 -214.56 -89.4175
v 2000 -214.56 -89.4175
v 2000 -211.623 -87.5
v 0 -211.623 -87.5
v 0 -211.623 -87.5
v 2000 -211.623 -87.5
v 2000 -209.788 -88.7198
v 0 -209.788 -88.7198
v 0 -209.788 -88.7198
v 2000 -209.788 -88.7198
v 2000 -208.003 -87.5
v 0 -208.003 -87.5
v 0 -208.003 -87.5
v 2000 -208.003 -87.5
v 2000 -205.933 -89.0108
v 0 -205.933 -89.0108
v 0 -205.933 -89.0108
v 2000 -205.933 -89.0108
v 2000 -203.634 -90.2021
v 0 -203.634 -90.2021
v 0 -203.634 -90.2021
v 2000 -203.634 -90.2021
v 2000 -201.201 -91.0384
v 0 -201.201 -91.0384
v 0 -201.201 -91.0384
v 2000 -201.201 -91.0384
v 2000 -198.526 -91.4274
v 0 -198.526 -91.4274
v 0 -198.526 -91.4274
v 2000 -198.526 -91.4274
v 2000 -196.062 -91.4274
v 0 -196.062 -91.4274
v 0 -196.062 -91.4274
v 2000 -196.062 -91.4274
v 2000 -193.42 -91.0222
v 0 -193.42 -91.0222
v 0 -193.42 -91.0222
v 2000 -193.42 -91.0222
v 2000 -190.924 -90.2117
v 0 -190.924 -90.2117
v 0 -190.924 -90.2117
v 2000 -190.924 -90.2117
v 2000 -188.712 -89.0969
v 0 -188.712 -89.0969
v 0 -188.712 -89.0969
v 2000 -188.712 -89.0969
v 2000 -186.581 -87.5
v 0 -186.581 -87.5
v 0 -186.581 -87.5
v 2000 -186.581 -87.5
v 2000 -184.751 -88.7309
v 0 -184.751 -88.7309
v 0 -184.751 -88.7309
v 2000 -184.751 -88.7309
v 2000 -182.977 -87.5
v 0 -182.977 -87.5
v 0 -182.977 -87.5
v 2000 -182.977 -87.5
v 2000 -180.457 -89.4106
v 0 -180.457 -89.4106
v 0 -180.457 -89.4106
v 2000 -180.457 -89.4106
v 2000 -177.708 -90.9912
v 0 -177.708 -90.9912
v 0 -177.708 -90.9912
v 2000 -177.708 -90.9912
v 2000 -174.736 -92.2248
v 0 -174.736 -92.2248
v 0 -174.736 -92.2248
v 2000 -174.736 -92.2248
v 2000 -171.68 -92.9818
v 0 -171.68 -92.9818
v 0 -171.68 -92.9818
v 2000 -171.68 -92.9818
v 2000 -168.568 -93.4437
v 0 -168.568 -93.4437
v 0 -168.568 -93.4437
v 2000 -168.568 -93.4437
v 2000 -165.344 -93.4437
v 0 -165.344 -93.4437
v 0 -165.344 -93.4437
v 2000 -165.344 -93.4437
v 2000 -162.231 -92.9818
v 0 -162.231 -92.9818
v 0 -162.231 -92.9818
v 2000 -162.231 -92.9818
v 2000 -159.091 -92.2248
v 0 -159.091 -92.2248
v 0 -159.091 -92.2248
v 2000 -159.091 -92.2248
v 2000 -156.099 -90.9617
v 0 -156.099 -90.9617
v 0 -156.099 -90.9617
v 2000 -156.099 -90.9617
v 2000 -153.407 -89.3916
v 0 -153.407 -89.3916
v 0 -153.407 -89.3916
v 2000 -153.407 -89.3916
v 2000 -150.925 -87.5
v 0 -150.925 -87.5
v 0 -150.925 -87.5
v 2000 -150.925 -87.5
v 2000 -149.083 -88.7284
v 0 -149.083 -88.7284
v 0 -149.083 -88.7284
v 2000 -149.083 -88.7284
v 2000 -147.317 -87.5
v 0 -147.317 -87.5
v 0 -147.317 -87.5
v 2000 -147.317 -87.5
v 2000 -143.572 -89.2661
v 0 -143.572 -89.2661
v 0 -143.572 -89.2661
v 2000 -143.572 -89.2661
v 2000 -139.736 -90.6814
v 0 -139.736 -90.6814
v 0 -139.736 -90.6814
v 2000 -139.736 -90.6814
v 2000 -135.606 -91.697
v 0 -135.606 -91.697
v 0 -135.606 -91.697
v 2000 -135.606 -91.697
v 2000 -131.63 -92.2625
v 0 -131.63 -92.2625
v 0 -131.63 -92.2625
v 2000 -131.63 -92.2625
v 2000 -127.47 -92.4738
v 0 -127.47 -92.4738
v 0 -127.47 -92.4738
v 2000 -127.47 -92.4738
v 2000 -123.262 -92.2788
v 0 -123.262 -92.2788
v 0 -123.262 -92.2788
v 2000 -123.262 -92.2788
v 2000 -119.199 -91.6613
v 0 -119.199 -91.6613
v 0 -119.199 -91.6613
v 2000 -119.199 -91.6613
v 2000 -115.244 -90.6926
v 0 -115.244 -90.6926
v 0 -115.244 -90.6926
v 2000 -115.244 -90.6926
v 2000 -111.306 -89.1911
v 0 -111.306 -89.1911
v 0 -111.306 -89.1911
v 2000 -111.306 -89.1911
v 2000 -107.679 -87.5
v 0 -107.679 -87.5
v 0 -107.679 -87.5
v 2000 -107.679 -87.5
v 2000 -105.87 -88.7223
v 0 -105.87 -88.7223
v 0 -105.87 -88.7223
v 2000 -105.87 -88.7223
v 2000 -104.096 -87.5
v 0 -104.096 -87.5
v 0 -104.096 -87.5
v 2000 -104.096 -87.5
v 2000 -101.104 -89.4338
v 0 -101.104 -89.4338
v 0 -101.104 -89.4338
v 2000 -101.104 -89.4338
v 2000 -97.9073 -91.0149
v 0 -97.9073 -91.0149
v 0 -97.9073 -91.0149
v 2000 -97.9073 -91.0149
v 2000 -94.5334 -92.2215
v 0 -94.5334 -92.2215
v 0 -94.5334 -92.2215
v 2000 -94.5334 -92.2215
v 2000 -91.0375 -93.1158
v 0 -91.0375 -93.1158
v 0 -91.0375 -93.1158
v 2000 -91.0375 -93.1158
v 2000 -87.5552 -93.4437
v 0 -87.5552 -93.4437
v 0 -87.5552 -93.4437
v 2000 -87.5552 -93.4437
v 2000 -83.8832 -93.4437
v 0 -83.8832 -93.4437
v 0 -83.8832 -93.4437
v 2000 -83.8832 -93.4437
v 2000 -80.4088 -93.0972
v 0 -80.4088 -93.0972
v 0 -80.4088 -93.0972
v 2000 -80.4088 -93.0972
v 2000 -76.978 -92.2029
v 0 -76.978 -92.2029
v 0 -76.978 -92.2029
v 2000 -76.978 -92.2029
v 2000 -73.6773 -91.0322
v 0 -73.6773 -91.0322
v 0 -73.6773 -91.0322
v 2000 -73.6773 -91.0322
v 2000 -70.4416 -89.4062
v 0 -70.4416 -89.4062
v 0 -70.4416 -89.4062
v 2000 -70.4416 -89.4062
v 2000 -67.5274 -87.5
v 0 -67.5274 -87.5
v 0 -67.5274 -87.5
v 2000 -67.5274 -87.5
v 2000 -65.7155 -88.7379
v 0 -65.7155 -88.7379
v 0 -65.7155 -88.7379
v 2000 -65.7155 -88.7379
v 2000 -63.9193 -87.5
v 0 -63.9193 -87.5
v 0 -63.9193 -87.5
v 2000 -63.9193 -87.5
v 2000 -61.1191 -89.1001
v 0 -61.1191 -89.1001
v 0 -61.1191 -89.1001
v 2000 -61.1191 -89.1001
v 2000 -58.337 -90.2704
v 0 -58.337 -90.2704
v 0 -58.337 -90.2704
v 2000 -58.337 -90.2704
v 2000 -55.3271 -91.0839
v 0 -55.3271 -91.0839
v 0 -55.3271 -91.0839
v 2000 -55.3271 -91.0839
v 2000 -52.2846 -91.4274
v 0 -52.2846 -91.4274
v 0 -52.2846 -91.4274
v 2000 -52.2846 -91.4274
v 2000 -48.9861 -91.4274
v 0 -48.9861 -91.4274
v 0 -48.9861 -91.4274
v 2000 -48.9861 -91.4274
v 2000 -46.077 -91.0174
v 0 -46.077 -91.0174
v 0 -46.077 -91.0174
v 2000 -46.077 -91.0174
v 2000 -42.9923 -90.256
v 0 -42.9923 -90.256
v 0 -42.9923 -90.256
v 2000 -42.9923 -90.256
v 2000 -40.149 -89.0197
v 0 -40.149 -89.0197
v 0 -40.149 -89.0197
v 2000 -40.149 -89.0197
v 2000 -37.4781 -87.5
v 0 -37.4781 -87.5
v 0 -37.4781 -87.5
v 2000 -37.4781 -87.5
v 2000 -35.7072 -88.7397
v 0 -35.7072 -88.7397
v 0 -35.7072 -88.7397
v 2000 -35.7072 -88.7397
v 2000 -33.9323 -87.5
v 0 -33.9323 -87.5
v 0 -33.9323 -87.5
v 2000 -33.9323 -87.5
v 2000 -31.3774 -89.4632
v 0 -31.3774 -89.4632
v 0 -31.3774 -89.4632
v 2000 -31.3774 -89.4632
v 2000 -28.585 -91.0233
v 0 -28.585 -91.0233
v 0 -28.585 -91.0233
v 2000 -28.585 -91.0233
v 2000 -25.5965 -92.233
v 0 -25.5965 -92.233
v 0 -25.5965 -92.233
v 2000 -25.5965 -92.233
v 2000 -22.536 -93.047
v 0 -22.536 -93.047
v 0 -22.536 -93.047
v 2000 -22.536 -93.047
v 2000 -19.3941 -93.4437
v 0 -19.3941 -93.4437
v 0 -19.3941 -93.4437
v 2000 -19.3941 -93.4437
v 2000 -15.9968 -93.4437
v 0 -15.9968 -93.4437
v 0 -15.9968 -93.4437
v 2000 -15.9968 -93.4437
v 2000 -13.1316 -93.0374
v 0 -13.1316 -93.0374
v 0 -13.1316 -93.0374
v 2000 -13.1316 -93.0374
v 2000 -10.0711 -92.2398
v 0 -10.0711 -92.2398
v 0 -10.0711 -92.2398
v 2000 -10.0711 -92.2398
v 2000 -6.97803 -90.97
v 0 -6.97803 -90.97
v 0 -6.97803 -90.97
v 2000 -6.97803 -90.97
v 2000 -4.2517 -89.3445
v 0 -4.2517 -89.3445
v 0 -4.2517 -89.3445
v 2000 -4.2517 -89.3445
v 2000 -1.80981 -87.5
v 0 -1.80981 -87.5
v 0 -1.80981 -87.5
v 2000 -1.80981 -87.5
v 2000 1.11022e-13 -88.7258
v 0 0 -88.7258
v 0 0 -88.7258
v 0 0 -100
v 0 -250 -100
v 0 -250 -88.946
v 0 -248.168 -87.7293
v 0 -245.221 -89.6269
v 0 -241.933 -91.163
v 0 -238.618 -92.3083
v 0 -235.227 -93.0691
v 0 -231.669 -93.4437
v 0 -228.074 -93.4437
v 0 -224.574 -93.0192
v 0 -221.058 -92.2209
v 0 -217.738 -91.0167
v 0 -214.56 -89.4175
v 0 -211.623 -87.5
v 0 -209.788 -88.7198
v 0 -208.003 -87.5
v 0 -205.933 -89.0108
v 0 -203.634 -90.2021
v 0 -201.201 -91.0384
v 0 -198.526 -91.4274
v 0 -196.062 -91.4274
v 0 -193.42 -91.0222
v 0 -190.924 -90.2117
v 0 -188.712 -89.0969
v 0 -186.581 -87.5
v 0 -184.751 -88.7309
v 0 -182.977 -87.5
v 0 -180.457 -89.4106
v 0 -177.708 -90.9912
v 0 -174.736 -92.2248
v 0 -171.68 -92.9818
v 0 -168.568 -93.4437
v 0 -165.344 -93.4437
v 0 -162.231 -92.9818
v 0 -159.091 -92.2248
v 0 -156.099 -90.9617
v 0 -153.407 -89.3916
v 0 -150.925 -87.5
v 0 -149.083 -88.7284
v 0 -147.317 -87.5
v 0 -143.572 -89.2661
v 0 -139.736 -90.6814
v 0 -135.606 -91.697
v 0 -131.63 -92.2625
v 0 -127.47 -92.4738
v 0 -123.262 -92.2788
v 0 -119.199 -91.6613
v 0 -115.244 -90.6926
v 0 -111.306 -89.1911
v 0 -107.679 -87.5
v 0 -105.87 -88.7223
v 0 -104.096 -87.5
v 0 -101.104 -89.4338
v 0 -97.9073 -91.0149
v 0 -94.5334 -92.2215
v 0 -91.0375 -93.1158
v 0 -87.5552 -93.4437
v 0 -83.8832 -93.4437
v 0 -80.4088 -93.0972
v 0 -76.978 -92.2029
v 0 -73.6773 -91.0322
v 0 -70.4416 -89.4062
v 0 -67.5274 -87.5
v 0 -65.7155 -88.7379
v 0 -63.9193 -87.5
v 0 -61.1191 -89.1001
v 0 -58.337 -90.2704
v 0 -55.3271 -91.0839
v 0 -52.2846 -91.4274
v 0 -48.9861 -91.4274
v 0 -46.077 -91.0174
v 0 -42.9923 -90.256
v 0 -40.149 -89.0197
v 0 -37.4781 -87.5
v 0 -35.7072 -88.7397
v 0 -33.9323 -87.5
v 0 -31.3774 -89.4632
v 0 -28.585 -91.0233
v 0 -25.5965 -92.233
v 0 -22.536 -93.047
v 0 -19.3941 -93.4437
v 0 -15.9968 -93.4437
v 0 -13.1316 -93.0374
v 0 -10.0711 -92.2398
v 0 -6.97803 -90.97
v 0 -4.2517 -89.3445
v 0 -1.80981 -87.5
v 0 -250 -100
v 2000 -250 -100
v 2000 -250 -88.946
v 0 -250 -88.946
v 2000 -250 -100
v 2000 1.11022e-13 -100
v 2000 1.11022e-13 -88.7258
v 2000 -1.80981 -87.5
v 2000 -4.2517 -89.3445
v 2000 -6.97803 -90.97
v 2000 -10.0711 -92.2398
v 2000 -13.1316 -93.0374
v 2000 -15.9968 -93.4437
v 2000 -19.3941 -93.4437
v 2000 -22.536 -93.047
v 2000 -25.5965 -92.233
v 2000 -28.585 -91.0233
v 2000 -31.3774 -89.4632
v 2000 -33.9323 -87.5
v 2000 -35.7072 -88.7397
v 2000 -37.4781 -87.5
v 2000 -40.149 -89.0197
v 2000 -42.9923 -90.256
v 2000 -46.077 -91.0174
v 2000 -48.9861 -91.4274
v 2000 -52.2846 -91.4274
v 2000 -55.3271 -91.0839
v 2000 -58.337 -90.2704
v 2000 -61.1191 -89.1001
v 2000 -63.9193 -87.5
v 2000 -65.7155 -88.7379
v 2000 -67.5274 -87.5
v 2000 -70.4416 -89.4062
v 2000 -73.6773 -91.0322
v 2000 -76.978 -92.2029
v 2000 -80.4088 -93.0972
v 2000 -83.8832 -93.4437
v 2000 -87.5552 -93.4437
v 2000 -91.0375 -93.1158
v 2000 -94.5334 -92.2215
v 2000 -97.9073 -91.0149
v 2000 -101.104 -89.4338
v 2000 -104.096 -87.5
v 2000 -105.87 -88.7223
v 2000 -107.679 -87.5
v 2000 -111.306 -89.1911
v 2000 -115.244 -90.6926
v 2000 -119.199 -91.6613
v 2000 -123.262 -92.2788
v 2000 -127.47 -92.4738
v 2000 -131.63 -92.2625
v 2000 -135.606 -91.697
v 2000 -139.736 -90.6814
v 2000 -143.572 -89.2661
v 2000 -147.317 -87.5
v 2000 -149.083 -88.7284
v 2000 -150.925 -87.5
v 2000 -153.407 -89.3916
v 2000 -156.099 -90.9617
v 2000 -159.091 -92.2248
v 2000 -162.231 -92.9818
v 2000 -165.344 -93.4437
v 2000 -168.568 -93.4437
v 2000 -171.68 -92.9818
v 2000 -174.736 -92.2248
v 2000 -177.708 -90.9912
v 2000 -180.457 -89.4106
v 2000 -182.977 -87.5
v 2000 -184.751 -88.7309
v 2000 -186.581 -87.5
v 2000 -188.712 -89.0969
v 2000 -190.924 -90.2117
v 2000 -193.42 -91.0222
v 2000 -196.062 -91.4274
v 2000 -198.526 -91.4274
v 2000 -201.201 -91.0384
v 2000 -203.634 -90.2021
v 2000 -205.933 -89.0108
v 2000 -208.003 -87.5
v 2000 -209.788 -88.7198
v 2000 -211.623 -87.5
v 2000 -214.56 -89.4175
v 2000 -217.738 -91.0167
v 2000 -221.058 -92.2209
v 2000 -224.574 -93.0192
v 2000 -228.074 -93.4437
v 2000 -231.669 -93.4437
v 2000 -235.227 -93.0691
v 2000 -238.618 -92.3083
v 2000 -241.933 -91.163
v 2000 -245.221 -89.6269
v 2000 -248.168 -87.7293
v 2000 -250 -88.946
v 0 0 -88.7258
v 2000 1.11022e-13 -88.7258
v 2000 1.11022e-13 -100
v 0 0 -100
v 0 0 -100
v 2000 1.11022e-13 -100
v 2000 -250 -100
v 0 -250 -100
# индексы вершин с 1 по 534

s off
vt -2.17715e-17 0.416667
vt 2.84444 0.416667
vt 2.84444 0.413614
vt -2.1612e-17 0.413614
# индексы вершин текстуры с 1 по 4

f  1/1 2/2 3/3 4/4
vt -2.1612e-17 0.413614
vt 2.84444 0.413614
vt 2.84444 0.408702
vt -2.13553e-17 0.408702
# индексы вершин текстуры с 5 по 8

f  4/5 3/6 7/7 8/8
vt -2.13553e-17 0.408702
vt 2.84444 0.408702
vt 2.84444 0.403222
vt -2.1069e-17 0.403222
# индексы вершин текстуры с 9 по 12

f  8/9 7/10 11/11 12/12
vt -2.1069e-17 0.403222
vt 2.84444 0.403222
vt 2.84444 0.397697
vt -2.07803e-17 0.397697
# индексы вершин текстуры с 13 по 16

f  12/13 11/14 15/15 16/16
vt -2.07803e-17 0.397697
vt 2.84444 0.397697
vt 2.84444 0.392045
vt -2.0485e-17 0.392045
# индексы вершин текстуры с 17 по 20

f  16/17 15/18 19/19 20/20
vt -2.0485e-17 0.392045
vt 2.84444 0.392045
vt 2.84444 0.386115
vt -2.01751e-17 0.386115
# индексы вершин текстуры с 21 по 24

f  20/21 19/22 23/23 24/24
vt -2.01751e-17 0.386115
vt 2.84444 0.386115
vt 2.84444 0.380123
vt -1.98621e-17 0.380123
# индексы вершин текстуры с 25 по 28

f  24/25 23/26 27/27 28/28
vt -1.98621e-17 0.380123
vt 2.84444 0.380123
vt 2.84444 0.374291
vt -1.95573e-17 0.374291
# индексы вершин текстуры с 29 по 32

f  28/29 27/30 31/31 32/32
vt -1.95573e-17 0.374291
vt 2.84444 0.374291
vt 2.84444 0.368429
vt -1.9251e-17 0.368429
# индексы вершин текстуры с 33 по 36

f  32/33 31/34 35/35 36/36
vt -1.9251e-17 0.368429
vt 2.84444 0.368429
vt 2.84444 0.362896
vt -1.89619e-17 0.362896
# индексы вершин текстуры с 37 по 40

f  36/37 35/38 39/39 40/40
vt -1.89619e-17 0.362896
vt 2.84444 0.362896
vt 2.84444 0.3576
vt -1.86852e-17 0.3576
# индексы вершин текстуры с 41 по 44

f  40/41 39/42 43/43 44/44
vt -1.86852e-17 0.3576
vt 2.84444 0.3576
vt 2.84444 0.352704
vt -1.84294e-17 0.352704
# индексы вершин текстуры с 45 по 48

f  44/45 43/46 47/47 48/48
vt -1.84294e-17 0.352704
vt 2.84444 0.352704
vt 2.84444 0.349647
vt -1.82696e-17 0.349647
# индексы вершин текстуры с 49 по 52

f  48/49 47/50 51/51 52/52
vt -1.82696e-17 0.349647
vt 2.84444 0.349647
vt 2.84444 0.346672
vt -1.81142e-17 0.346672
# индексы вершин текстуры с 53 по 56

f  52/53 51/54 55/55 56/56
vt -1.81142e-17 0.346672
vt 2.84444 0.346672
vt 2.84444 0.343221
vt -1.79338e-17 0.343221
# индексы вершин текстуры с 57 по 60

f  56/57 55/58 59/59 60/60
vt -1.79338e-17 0.343221
vt 2.84444 0.343221
vt 2.84444 0.339391
vt -1.77337e-17 0.339391
# индексы вершин текстуры с 61 по 64

f  60/61 59/62 63/63 64/64
vt -1.77337e-17 0.339391
vt 2.84444 0.339391
vt 2.84444 0.335334
vt -1.75218e-17 0.335334
# индексы вершин текстуры с 65 по 68

f  64/65 63/66 67/67 68/68
vt -1.75218e-17 0.335334
vt 2.84444 0.335334
vt 2.84444 0.330877
vt -1.72888e-17 0.330877
# индексы вершин текстуры с 69 по 72

f  68/69 67/70 71/71 72/72
vt -1.72888e-17 0.330877
vt 2.84444 0.330877
vt 2.84444 0.32677
vt -1.70743e-17 0.32677
# индексы вершин текстуры с 73 по 76

f  72/73 71/74 75/75 76/76
vt -1.70743e-17 0.32677
vt 2.84444 0.32677
vt 2.84444 0.322367
vt -1.68442e-17 0.322367
# индексы вершин текстуры с 77 по 80

f  76/77 75/78 79/79 80/80
vt -1.68442e-17 0.322367
vt 2.84444 0.322367
vt 2.84444 0.318207
vt -1.66268e-17 0.318207
# индексы вершин текстуры с 81 по 84

f  80/81 79/82 83/83 84/84
vt -1.66268e-17 0.318207
vt 2.84444 0.318207
vt 2.84444 0.31452
vt -1.64342e-17 0.31452
# индексы вершин текстуры с 85 по 88

f  84/85 83/86 87/87 88/88
vt -1.64342e-17 0.31452
vt 2.84444 0.31452
vt 2.84444 0.310969
vt -1.62486e-17 0.310969
# индексы вершин текстуры с 89 по 92

f  88/89 87/90 91/91 92/92
vt -1.62486e-17 0.310969
vt 2.84444 0.310969
vt 2.84444 0.307918
vt -1.60892e-17 0.307918
# индексы вершин текстуры с 93 по 96

f  92/93 91/94 95/95 96/96
vt -1.60892e-17 0.307918
vt 2.84444 0.307918
vt 2.84444 0.304962
vt -1.59347e-17 0.304962
# индексы вершин текстуры с 97 по 100

f  96/97 95/98 99/99 100/100
vt -1.59347e-17 0.304962
vt 2.84444 0.304962
vt 2.84444 0.300762
vt -1.57153e-17 0.300762
# индексы вершин текстуры с 101 по 104

f  100/101 99/102 103/103 104/104
vt -1.57153e-17 0.300762
vt 2.84444 0.300762
vt 2.84444 0.29618
vt -1.54759e-17 0.29618
# индексы вершин текстуры с 105 по 108

f  104/105 103/106 107/107 108/108
vt -1.54759e-17 0.29618
vt 2.84444 0.29618
vt 2.84444 0.291227
vt -1.52171e-17 0.291227
# индексы вершин текстуры с 109 по 112

f  108/109 107/110 111/111 112/112
vt -1.52171e-17 0.291227
vt 2.84444 0.291227
vt 2.84444 0.286133
vt -1.49509e-17 0.286133
# индексы вершин текстуры с 113 по 116

f  112/113 111/114 115/115 116/116
vt -1.49509e-17 0.286133
vt 2.84444 0.286133
vt 2.84444 0.280946
vt -1.46799e-17 0.280946
# индексы вершин текстуры с 117 по 120

f  116/117 115/118 119/119 120/120
vt -1.46799e-17 0.280946
vt 2.84444 0.280946
vt 2.84444 0.275573
vt -1.43991e-17 0.275573
# индексы вершин текстуры с 121 по 124

f  120/121 119/122 123/123 124/124
vt -1.43991e-17 0.275573
vt 2.84444 0.275573
vt 2.84444 0.270386
vt -1.41281e-17 0.270386
# индексы вершин текстуры с 125 по 128

f  124/125 123/126 127/127 128/128
vt -1.41281e-17 0.270386
vt 2.84444 0.270386
vt 2.84444 0.265152
vt -1.38546e-17 0.265152
# индексы вершин текстуры с 129 по 132

f  128/129 127/130 131/131 132/132
vt -1.38546e-17 0.265152
vt 2.84444 0.265152
vt 2.84444 0.260164
vt -1.3594e-17 0.260164
# индексы вершин текстуры с 133 по 136

f  132/133 131/134 135/135 136/136
vt -1.3594e-17 0.260164
vt 2.84444 0.260164
vt 2.84444 0.255678
vt -1.33596e-17 0.255678
# индексы вершин текстуры с 137 по 140

f  136/137 135/138 139/139 140/140
vt -1.33596e-17 0.255678
vt 2.84444 0.255678
vt 2.84444 0.251541
vt -1.31434e-17 0.251541
# индексы вершин текстуры с 141 по 144

f  140/141 139/142 143/143 144/144
vt -1.31434e-17 0.251541
vt 2.84444 0.251541
vt 2.84444 0.248472
vt -1.29831e-17 0.248472
# индексы вершин текстуры с 145 по 148

f  144/145 143/146 147/147 148/148
vt -1.29831e-17 0.248472
vt 2.84444 0.248472
vt 2.84444 0.245528
vt -1.28292e-17 0.245528
# индексы вершин текстуры с 149 по 152

f  148/149 147/150 151/151 152/152
vt -1.28292e-17 0.245528
vt 2.84444 0.245528
vt 2.84444 0.239287
vt -1.25031e-17 0.239287
# индексы вершин текстуры с 153 по 156

f  152/153 151/154 155/155 156/156
vt -1.25031e-17 0.239287
vt 2.84444 0.239287
vt 2.84444 0.232894
vt -1.21691e-17 0.232894
# индексы вершин текстуры с 157 по 160

f  156/157 155/158 159/159 160/160
vt -1.21691e-17 0.232894
vt 2.84444 0.232894
vt 2.84444 0.226011
vt -1.18094e-17 0.226011
# индексы вершин текстуры с 161 по 164

f  160/161 159/162 163/163 164/164
vt -1.18094e-17 0.226011
vt 2.84444 0.226011
vt 2.84444 0.219384
vt -1.14632e-17 0.219384
# индексы вершин текстуры с 165 по 168

f  164/165 163/166 167/167 168/168
vt -1.14632e-17 0.219384
vt 2.84444 0.219384
vt 2.84444 0.212451
vt -1.11009e-17 0.212451
# индексы вершин текстуры с 169 по 172

f  168/169 167/170 171/171 172/172
vt -1.11009e-17 0.212451
vt 2.84444 0.212451
vt 2.84444 0.205436
vt -1.07344e-17 0.205436
# индексы вершин текстуры с 173 по 176

f  172/173 171/174 175/175 176/176
vt -1.07344e-17 0.205436
vt 2.84444 0.205436
vt 2.84444 0.198666
vt -1.03806e-17 0.198666
# индексы вершин текстуры с 177 по 180

f  176/177 175/178 179/179 180/180
vt -1.03806e-17 0.198666
vt 2.84444 0.198666
vt 2.84444 0.192074
vt -1.00362e-17 0.192074
# индексы вершин текстуры с 181 по 184

f  180/181 179/182 183/183 184/184
vt -1.00362e-17 0.192074
vt 2.84444 0.192074
vt 2.84444 0.185509
vt -9.69316e-18 0.185509
# индексы вершин текстуры с 185 по 188

f  184/185 183/186 187/187 188/188
vt -9.69316e-18 0.185509
vt 2.84444 0.185509
vt 2.84444 0.179465
vt -9.37731e-18 0.179465
# индексы вершин текстуры с 189 по 192

f  188/189 187/190 191/191 192/192
vt -9.37731e-18 0.179465
vt 2.84444 0.179465
vt 2.84444 0.176449
vt -9.21976e-18 0.176449
# индексы вершин текстуры с 193 по 196

f  192/193 191/194 195/195 196/196
vt -9.21976e-18 0.176449
vt 2.84444 0.176449
vt 2.84444 0.173494
vt -9.06534e-18 0.173494
# индексы вершин текстуры с 197 по 200

f  196/197 195/198 199/199 200/200
vt -9.06534e-18 0.173494
vt 2.84444 0.173494
vt 2.84444 0.168506
vt -8.8047e-18 0.168506
# индексы вершин текстуры с 201 по 204

f  200/201 199/202 203/203 204/204
vt -8.8047e-18 0.168506
vt 2.84444 0.168506
vt 2.84444 0.163179
vt -8.52636e-18 0.163179
# индексы вершин текстуры с 205 по 208

f  204/205 203/206 207/207 208/208
vt -8.52636e-18 0.163179
vt 2.84444 0.163179
vt 2.84444 0.157556
vt -8.23253e-18 0.157556
# индексы вершин текстуры с 209 по 212

f  208/209 207/210 211/211 212/212
vt -8.23253e-18 0.157556
vt 2.84444 0.157556
vt 2.84444 0.151729
vt -7.92809e-18 0.151729
# индексы вершин текстуры с 213 по 216

f  212/213 211/214 215/215 216/216
vt -7.92809e-18 0.151729
vt 2.84444 0.151729
vt 2.84444 0.145925
vt -7.62484e-18 0.145925
# индексы вершин текстуры с 217 по 220

f  216/217 215/218 219/219 220/220
vt -7.62484e-18 0.145925
vt 2.84444 0.145925
vt 2.84444 0.139805
vt -7.30506e-18 0.139805
# индексы вершин текстуры с 221 по 224

f  220/221 219/222 223/223 224/224
vt -7.30506e-18 0.139805
vt 2.84444 0.139805
vt 2.84444 0.134015
vt -7.00248e-18 0.134015
# индексы вершин текстуры с 225 по 228

f  224/225 223/226 227/227 228/228
vt -7.00248e-18 0.134015
vt 2.84444 0.134015
vt 2.84444 0.128297
vt -6.70371e-18 0.128297
# индексы вершин текстуры с 229 по 232

f  228/229 227/230 231/231 232/232
vt -6.70371e-18 0.128297
vt 2.84444 0.128297
vt 2.84444 0.122795
vt -6.41626e-18 0.122795
# индексы вершин текстуры с 233 по 236

f  232/233 231/234 235/235 236/236
vt -6.41626e-18 0.122795
vt 2.84444 0.122795
vt 2.84444 0.117403
vt -6.13448e-18 0.117403
# индексы вершин текстуры с 237 по 240

f  236/237 235/238 239/239 240/240
vt -6.13448e-18 0.117403
vt 2.84444 0.117403
vt 2.84444 0.112546
vt -5.88069e-18 0.112546
# индексы вершин текстуры с 241 по 244

f  240/241 239/242 243/243 244/244
vt -5.88069e-18 0.112546
vt 2.84444 0.112546
vt 2.84444 0.109526
vt -5.7229e-18 0.109526
# индексы вершин текстуры с 245 по 248

f  244/245 243/246 247/247 248/248
vt -5.7229e-18 0.109526
vt 2.84444 0.109526
vt 2.84444 0.106532
vt -5.56647e-18 0.106532
# индексы вершин текстуры с 249 по 252

f  248/249 247/250 251/251 252/252
vt -5.56647e-18 0.106532
vt 2.84444 0.106532
vt 2.84444 0.101865
vt -5.32261e-18 0.101865
# индексы вершин текстуры с 253 по 256

f  252/253 251/254 255/255 256/256
vt -5.32261e-18 0.101865
vt 2.84444 0.101865
vt 2.84444 0.0972284
vt -5.08034e-18 0.0972284
# индексы вершин текстуры с 257 по 260

f  256/257 255/258 259/259 260/260
vt -5.08034e-18 0.0972284
vt 2.84444 0.0972284
vt 2.84444 0.0922118
vt -4.81822e-18 0.0922118
# индексы вершин текстуры с 261 по 264

f  260/261 259/262 263/263 264/264
vt -4.81822e-18 0.0922118
vt 2.84444 0.0922118
vt 2.84444 0.0871411
vt -4.55326e-18 0.0871411
# индексы вершин текстуры с 265 по 268

f  264/265 263/266 267/267 268/268
vt -4.55326e-18 0.0871411
vt 2.84444 0.0871411
vt 2.84444 0.0816435
vt -4.266e-18 0.0816435
# индексы вершин текстуры с 269 по 272

f  268/269 267/270 271/271 272/272
vt -4.266e-18 0.0816435
vt 2.84444 0.0816435
vt 2.84444 0.0767951
vt -4.01267e-18 0.0767951
# индексы вершин текстуры с 273 по 276

f  272/273 271/274 275/275 276/276
vt -4.01267e-18 0.0767951
vt 2.84444 0.0767951
vt 2.84444 0.0716538
vt -3.74403e-18 0.0716538
# индексы вершин текстуры с 277 по 280

f  276/277 275/278 279/279 280/280
vt -3.74403e-18 0.0716538
vt 2.84444 0.0716538
vt 2.84444 0.066915
vt -3.49642e-18 0.066915
# индексы вершин текстуры с 281 по 284

f  280/281 279/282 283/283 284/284
vt -3.49642e-18 0.066915
vt 2.84444 0.066915
vt 2.84444 0.0624636
vt -3.26382e-18 0.0624636
# индексы вершин текстуры с 285 по 288

f  284/285 283/286 287/287 288/288
vt -3.26382e-18 0.0624636
vt 2.84444 0.0624636
vt 2.84444 0.059512
vt -3.1096e-18 0.059512
# индексы вершин текстуры с 289 по 292

f  288/289 287/290 291/291 292/292
vt -3.1096e-18 0.059512
vt 2.84444 0.059512
vt 2.84444 0.0565539
vt -2.95503e-18 0.0565539
# индексы вершин текстуры с 293 по 296

f  292/293 291/294 295/295 296/296
vt -2.95503e-18 0.0565539
vt 2.84444 0.0565539
vt 2.84444 0.0522956
vt -2.73253e-18 0.0522956
# индексы вершин текстуры с 297 по 300

f  296/297 295/298 299/299 300/300
vt -2.73253e-18 0.0522956
vt 2.84444 0.0522956
vt 2.84444 0.0476417
vt -2.48936e-18 0.0476417
# индексы вершин текстуры с 301 по 304

f  300/301 299/302 303/303 304/304
vt -2.48936e-18 0.0476417
vt 2.84444 0.0476417
vt 2.84444 0.0426608
vt -2.22909e-18 0.0426608
# индексы вершин текстуры с 305 по 308

f  304/305 303/306 307/307 308/308
vt -2.22909e-18 0.0426608
vt 2.84444 0.0426608
vt 2.84444 0.0375599
vt -1.96257e-18 0.0375599
# индексы вершин текстуры с 309 по 312

f  308/309 307/310 311/311 312/312
vt -1.96257e-18 0.0375599
vt 2.84444 0.0375599
vt 2.84444 0.0323234
vt -1.68895e-18 0.0323234
# индексы вершин текстуры с 313 по 316

f  312/313 311/314 315/315 316/316
vt -1.68895e-18 0.0323234
vt 2.84444 0.0323234
vt 2.84444 0.0266613
vt -1.39309e-18 0.0266613
# индексы вершин текстуры с 317 по 320

f  316/317 315/318 319/319 320/320
vt -1.39309e-18 0.0266613
vt 2.84444 0.0266613
vt 2.84444 0.021886
vt -1.14358e-18 0.021886
# индексы вершин текстуры с 321 по 324

f  320/321 319/322 323/323 324/324
vt -1.14358e-18 0.021886
vt 2.84444 0.021886
vt 2.84444 0.0167852
vt -8.77051e-19 0.0167852
# индексы вершин текстуры с 325 по 328

f  324/325 323/326 327/327 328/328
vt -8.77051e-19 0.0167852
vt 2.84444 0.0167852
vt 2.84444 0.01163
vt -6.07688e-19 0.01163
# индексы вершин текстуры с 329 по 332

f  328/329 327/330 331/331 332/332
vt -6.07688e-19 0.01163
vt 2.84444 0.01163
vt 2.84444 0.00708617
vt -3.70264e-19 0.00708617
# индексы вершин текстуры с 333 по 336

f  332/333 331/334 335/335 336/336
vt -3.70264e-19 0.00708617
vt 2.84444 0.00708617
vt 2.84444 0.00301635
vt -1.57609e-19 0.00301635
# индексы вершин текстуры с 337 по 340

f  336/337 335/338 339/339 340/340
vt -1.57609e-19 0.00301635
vt 2.84444 0.00301635
vt 2.84444 1.00158e-17
vt 4.73128e-34 -9.05481e-18
# индексы вершин текстуры с 341 по 344

f  340/341 339/342 343/343 344/344
vt 0.298365 -0.147866
vt 0.295827 -0.145833
vt 0.292882 -0.148351
vt 0.0571008 -0.148366
vt 0.0533022 -0.145833
vt 0.0507836 -0.147899
vt 0.268391 -0.148495
vt 0.26536 -0.145833
vt 0.262757 -0.147885
vt 0.093462 -0.147896
vt 0.0909074 -0.145833
vt 0.0869249 -0.1485
vt 0.158301 -0.148652
vt 0.153143 -0.145833
vt 0.15057 -0.14787
vt 0.212029 -0.147881
vt 0.209517 -0.145833
vt 0.204191 -0.148777
vt 0.00604687 -0.148908
vt 0.00257395 -0.145833
vt -7.72677e-18 -0.147876
vt 0.218179 -0.148986
vt 0.214648 -0.145833
vt 0.212029 -0.147881
vt 0.218179 -0.148986
vt 0.212029 -0.147881
vt 0.204191 -0.148777
vt 0.100184 -0.14901
vt 0.096039 -0.145833
vt 0.093462 -0.147896
vt 0.100184 -0.14901
vt 0.093462 -0.147896
vt 0.0869249 -0.1485
vt 0.262757 -0.147885
vt 0.260234 -0.145833
vt 0.25665 -0.149018
vt 0.268391 -0.148495
vt 0.262757 -0.147885
vt 0.25665 -0.149018
vt 0.305152 -0.149029
vt 0.300974 -0.145833
vt 0.298365 -0.147866
vt 0.305152 -0.149029
vt 0.298365 -0.147866
vt 0.292882 -0.148351
vt 0.15057 -0.14787
vt 0.148048 -0.145833
vt 0.143792 -0.149056
vt 0.158301 -0.148652
vt 0.15057 -0.14787
vt 0.143792 -0.149056
vt 0.0507836 -0.147899
vt 0.0482593 -0.145833
vt 0.0446256 -0.149105
vt 0.0571008 -0.148366
vt 0.0507836 -0.147899
vt 0.0446256 -0.149105
vt 0.355556 -0.148243
vt 0.352951 -0.146215
vt 0.348759 -0.149378
vt 0.305152 -0.149029
vt 0.292882 -0.148351
vt 0.289613 -0.150337
vt 0.271536 -0.150353
vt 0.268391 -0.148495
vt 0.25665 -0.149018
vt 0.0611446 -0.150427
vt 0.0571008 -0.148366
vt 0.0446256 -0.149105
vt 0.100184 -0.14901
vt 0.0869249 -0.1485
vt 0.0829682 -0.150451
vt 0.218179 -0.148986
vt 0.204191 -0.148777
vt 0.198736 -0.151136
vt 0.163903 -0.151154
vt 0.158301 -0.148652
vt 0.143792 -0.149056
vt 0.222007 -0.151603
vt 0.218179 -0.148986
vt 0.198736 -0.151136
vt 0.00992431 -0.151617
vt 0.00604687 -0.148908
vt -7.72677e-18 -0.147876
vt 0.271536 -0.150353
vt 0.25665 -0.149018
vt 0.25274 -0.151652
vt 0.309671 -0.151694
vt 0.305152 -0.149029
vt 0.289613 -0.150337
vt 0.163903 -0.151154
vt 0.143792 -0.149056
vt 0.139246 -0.151692
vt 0.0655318 -0.151696
vt 0.0611446 -0.150427
vt 0.0446256 -0.149105
vt 0.275086 -0.151704
vt 0.271536 -0.150353
vt 0.25274 -0.151652
vt 0.0655318 -0.151696
vt 0.0446256 -0.149105
vt 0.0406543 -0.151705
vt 0.104785 -0.15172
vt 0.100184 -0.14901
vt 0.0829682 -0.150451
vt 0.309671 -0.151694
vt 0.289613 -0.150337
vt 0.286152 -0.151731
vt 0.104785 -0.15172
vt 0.0829682 -0.150451
vt 0.0786874 -0.151806
vt 0.355556 -0.148243
vt 0.348759 -0.149378
vt 0.344083 -0.151938
vt 0.309671 -0.151694
vt 0.286152 -0.151731
vt 0.282348 -0.152379
vt 0.278844 -0.152379
vt 0.275086 -0.151704
vt 0.25274 -0.151652
vt 0.104785 -0.15172
vt 0.0786874 -0.151806
vt 0.0743604 -0.152379
vt 0.0696691 -0.152379
vt 0.0655318 -0.151696
vt 0.0406543 -0.151705
vt 0.169528 -0.152769
vt 0.163903 -0.151154
vt 0.139246 -0.151692
vt 0.222007 -0.151603
vt 0.198736 -0.151136
vt 0.192862 -0.152828
vt 0.10948 -0.153671
vt 0.104785 -0.15172
vt 0.0743604 -0.152379
vt 0.10948 -0.153671
vt 0.0743604 -0.152379
vt 0.0696691 -0.152379
vt 0.10948 -0.153671
vt 0.0696691 -0.152379
vt 0.0406543 -0.151705
vt 0.314393 -0.153701
vt 0.309671 -0.151694
vt 0.282348 -0.152379
vt 0.314393 -0.153701
vt 0.282348 -0.152379
vt 0.278844 -0.152379
vt 0.314393 -0.153701
vt 0.278844 -0.152379
vt 0.25274 -0.151652
vt 0.169528 -0.152769
vt 0.139246 -0.151692
vt 0.134447 -0.153702
vt 0.314393 -0.153701
vt 0.25274 -0.151652
vt 0.248514 -0.153708
vt 0.226263 -0.153708
vt 0.222007 -0.151603
vt 0.192862 -0.152828
vt 0.10948 -0.153671
vt 0.0406543 -0.151705
vt 0.0364039 -0.153722
vt 0.0143233 -0.153733
vt 0.00992431 -0.151617
vt -7.72677e-18 -0.147876
vt 0.226263 -0.153708
vt 0.192862 -0.152828
vt 0.187207 -0.153771
vt 0.175306 -0.153798
vt 0.169528 -0.152769
vt 0.134447 -0.153702
vt 0.355556 -0.148243
vt 0.344083 -0.151938
vt 0.339369 -0.153847
vt 0.226263 -0.153708
vt 0.187207 -0.153771
vt 0.181291 -0.154123
vt 0.181291 -0.154123
vt 0.175306 -0.153798
vt 0.134447 -0.153702
vt 0.314393 -0.153701
vt 0.248514 -0.153708
vt 0.244167 -0.15497
vt 0.230729 -0.15497
vt 0.226263 -0.153708
vt 0.181291 -0.154123
vt 0.230729 -0.15497
vt 0.181291 -0.154123
vt 0.134447 -0.153702
vt 0.319395 -0.155032
vt 0.314393 -0.153701
vt 0.244167 -0.15497
vt 0.10948 -0.153671
vt 0.0364039 -0.153722
vt 0.0320511 -0.155078
vt 0.114359 -0.155162
vt 0.10948 -0.153671
vt 0.0320511 -0.155078
vt 0.230729 -0.15497
vt 0.134447 -0.153702
vt 0.129476 -0.155193
vt 0.324372 -0.155739
vt 0.319395 -0.155032
vt 0.244167 -0.15497
vt 0.324372 -0.155739
vt 0.244167 -0.15497
vt 0.239741 -0.155739
vt 0.235155 -0.155739
vt 0.230729 -0.15497
vt 0.129476 -0.155193
vt 0.235155 -0.155739
vt 0.129476 -0.155193
vt 0.124523 -0.155739
vt 0.119301 -0.155739
vt 0.114359 -0.155162
vt 0.0320511 -0.155078
vt 0.119301 -0.155739
vt 0.0320511 -0.155078
vt 0.0275827 -0.155739
vt 0.355556 -0.166667
vt 0.355556 -0.148243
vt 0.339369 -0.153847
vt 0.355556 -0.166667
vt 0.339369 -0.153847
vt 0.334545 -0.155115
vt 0.355556 -0.166667
vt 0.334545 -0.155115
vt 0.329485 -0.155739
vt 0.355556 -0.166667
vt 0.329485 -0.155739
vt 0.0275827 -0.155739
vt 0.355556 -0.166667
vt 0.0275827 -0.155739
vt -8.7086e-18 -0.166667
vt -8.7086e-18 -0.166667
vt 0.0275827 -0.155739
vt 0.0227509 -0.155739
vt -8.7086e-18 -0.166667
vt 0.0227509 -0.155739
vt 0.0186761 -0.155062
vt -8.7086e-18 -0.166667
vt 0.0186761 -0.155062
vt 0.0143233 -0.153733
vt -8.7086e-18 -0.166667
vt 0.0143233 -0.153733
vt -7.72677e-18 -0.147876
# индексы вершин текстуры с 345 по 590

f  52/345 56/346 60/347
f  284/348 288/349 292/350
f  88/351 92/352 96/353
f  248/354 252/355 256/356
f  188/357 192/358 196/359
f  148/360 152/361 156/362
f  336/363 340/364 344/365
f  140/366 144/367 148/368
f  140/369 148/370 156/371
f  240/372 244/373 248/374
f  240/375 248/376 256/377
f  96/378 100/379 104/380
f  88/381 96/382 104/383
f  44/384 48/385 52/386
f  44/387 52/388 60/389
f  196/390 200/391 204/392
f  188/393 196/394 204/395
f  292/396 296/397 300/398
f  284/399 292/400 300/401
f  1/402 4/403 8/404
f  44/405 60/406 64/407
f  84/408 88/409 104/410
f  280/411 284/412 300/413
f  240/414 256/415 260/416
f  140/417 156/418 160/419
f  184/420 188/421 204/422
f  136/423 140/424 160/425
f  332/426 336/427 344/428
f  84/429 104/430 108/431
f  40/432 44/433 64/434
f  184/435 204/436 208/437
f  276/438 280/439 300/440
f  80/441 84/442 108/443
f  276/444 300/445 304/446
f  236/447 240/448 260/449
f  40/450 64/451 68/452
f  236/453 260/454 264/455
f  1/456 8/457 12/458
f  40/459 68/460 72/461
f  76/462 80/463 108/464
f  236/465 264/466 268/467
f  272/468 276/469 304/470
f  180/471 184/472 208/473
f  136/474 160/475 164/476
f  232/477 236/478 268/479
f  232/480 268/481 272/482
f  232/483 272/484 304/485
f  36/486 40/487 72/488
f  36/489 72/490 76/491
f  36/492 76/493 108/494
f  180/495 208/496 212/497
f  36/498 108/499 112/500
f  132/501 136/502 164/503
f  232/504 304/505 308/506
f  328/507 332/508 344/509
f  132/510 164/511 168/512
f  176/513 180/514 212/515
f  1/516 12/517 16/518
f  132/519 168/520 172/521
f  172/522 176/523 212/524
f  36/525 112/526 116/527
f  128/528 132/529 172/530
f  128/531 172/532 212/533
f  32/534 36/535 116/536
f  232/537 308/538 312/539
f  228/540 232/541 312/542
f  128/543 212/544 216/545
f  28/546 32/547 116/548
f  28/549 116/550 120/551
f  124/552 128/553 216/554
f  124/555 216/556 220/557
f  224/558 228/559 312/560
f  224/561 312/562 316/563
f  347/564 1/565 16/566
f  347/567 16/568 20/569
f  347/570 20/571 24/572
f  347/573 24/574 316/575
f  347/576 316/577 346/578
f  346/579 316/580 320/581
f  346/582 320/583 324/584
f  346/585 324/586 328/587
f  346/588 328/589 344/590
vt -2.17715e-17 -0.166667
vt 2.84444 -0.166667
vt 2.84444 -0.148243
vt -2.17715e-17 -0.148243
# индексы вершин текстуры с 591 по 594

f  347/591 435/592 2/593 1/594
vt 0.292882 -0.148351
vt 0.295827 -0.145833
vt 0.298365 -0.147866
vt 0.0507836 -0.147899
vt 0.0533022 -0.145833
vt 0.0571008 -0.148366
vt 0.262757 -0.147885
vt 0.26536 -0.145833
vt 0.268391 -0.148495
vt 0.0869249 -0.1485
vt 0.0909074 -0.145833
vt 0.093462 -0.147896
vt 0.15057 -0.14787
vt 0.153143 -0.145833
vt 0.158301 -0.148652
vt 0.204191 -0.148777
vt 0.209517 -0.145833
vt 0.212029 -0.147881
vt 8.54683e-18 -0.147876
vt 0.00257395 -0.145833
vt 0.00604687 -0.148908
vt 0.212029 -0.147881
vt 0.214648 -0.145833
vt 0.218179 -0.148986
vt 0.204191 -0.148777
vt 0.212029 -0.147881
vt 0.218179 -0.148986
vt 0.093462 -0.147896
vt 0.096039 -0.145833
vt 0.100184 -0.14901
vt 0.0869249 -0.1485
vt 0.093462 -0.147896
vt 0.100184 -0.14901
vt 0.25665 -0.149018
vt 0.260234 -0.145833
vt 0.262757 -0.147885
vt 0.25665 -0.149018
vt 0.262757 -0.147885
vt 0.268391 -0.148495
vt 0.298365 -0.147866
vt 0.300974 -0.145833
vt 0.305152 -0.149029
vt 0.292882 -0.148351
vt 0.298365 -0.147866
vt 0.305152 -0.149029
vt 0.143792 -0.149056
vt 0.148048 -0.145833
vt 0.15057 -0.14787
vt 0.143792 -0.149056
vt 0.15057 -0.14787
vt 0.158301 -0.148652
vt 0.0446256 -0.149105
vt 0.0482593 -0.145833
vt 0.0507836 -0.147899
vt 0.0446256 -0.149105
vt 0.0507836 -0.147899
vt 0.0571008 -0.148366
vt 0.348759 -0.149378
vt 0.352951 -0.146215
vt 0.355556 -0.148243
vt 0.289613 -0.150337
vt 0.292882 -0.148351
vt 0.305152 -0.149029
vt 0.25665 -0.149018
vt 0.268391 -0.148495
vt 0.271536 -0.150353
vt 0.0446256 -0.149105
vt 0.0571008 -0.148366
vt 0.0611446 -0.150427
vt 0.0829682 -0.150451
vt 0.0869249 -0.1485
vt 0.100184 -0.14901
vt 0.198736 -0.151136
vt 0.204191 -0.148777
vt 0.218179 -0.148986
vt 0.143792 -0.149056
vt 0.158301 -0.148652
vt 0.163903 -0.151154
vt 0.198736 -0.151136
vt 0.218179 -0.148986
vt 0.222007 -0.151603
vt 8.54683e-18 -0.147876
vt 0.00604687 -0.148908
vt 0.00992431 -0.151617
vt 0.25274 -0.151652
vt 0.25665 -0.149018
vt 0.271536 -0.150353
vt 0.0446256 -0.149105
vt 0.0611446 -0.150427
vt 0.0655318 -0.151696
vt 0.139246 -0.151692
vt 0.143792 -0.149056
vt 0.163903 -0.151154
vt 0.289613 -0.150337
vt 0.305152 -0.149029
vt 0.309671 -0.151694
vt 0.0406543 -0.151705
vt 0.0446256 -0.149105
vt 0.0655318 -0.151696
vt 0.25274 -0.151652
vt 0.271536 -0.150353
vt 0.275086 -0.151704
vt 0.0829682 -0.150451
vt 0.100184 -0.14901
vt 0.104785 -0.15172
vt 0.286152 -0.151731
vt 0.289613 -0.150337
vt 0.309671 -0.151694
vt 0.0786874 -0.151806
vt 0.0829682 -0.150451
vt 0.104785 -0.15172
vt 0.344083 -0.151938
vt 0.348759 -0.149378
vt 0.355556 -0.148243
vt 0.0406543 -0.151705
vt 0.0655318 -0.151696
vt 0.0696691 -0.152379
vt 0.0743604 -0.152379
vt 0.0786874 -0.151806
vt 0.104785 -0.15172
vt 0.25274 -0.151652
vt 0.275086 -0.151704
vt 0.278844 -0.152379
vt 0.282348 -0.152379
vt 0.286152 -0.151731
vt 0.309671 -0.151694
vt 0.139246 -0.151692
vt 0.163903 -0.151154
vt 0.169528 -0.152769
vt 0.192862 -0.152828
vt 0.198736 -0.151136
vt 0.222007 -0.151603
vt 0.0743604 -0.152379
vt 0.104785 -0.15172
vt 0.10948 -0.153671
vt 0.0696691 -0.152379
vt 0.0743604 -0.152379
vt 0.10948 -0.153671
vt 0.0406543 -0.151705
vt 0.0696691 -0.152379
vt 0.10948 -0.153671
vt 0.134447 -0.153702
vt 0.139246 -0.151692
vt 0.169528 -0.152769
vt 0.282348 -0.152379
vt 0.309671 -0.151694
vt 0.314393 -0.153701
vt 0.278844 -0.152379
vt 0.282348 -0.152379
vt 0.314393 -0.153701
vt 0.25274 -0.151652
vt 0.278844 -0.152379
vt 0.314393 -0.153701
vt 0.192862 -0.152828
vt 0.222007 -0.151603
vt 0.226263 -0.153708
vt 0.248514 -0.153708
vt 0.25274 -0.151652
vt 0.314393 -0.153701
vt 0.0364039 -0.153722
vt 0.0406543 -0.151705
vt 0.10948 -0.153671
vt 8.54683e-18 -0.147876
vt 0.00992431 -0.151617
vt 0.0143233 -0.153733
vt 0.187207 -0.153771
vt 0.192862 -0.152828
vt 0.226263 -0.153708
vt 0.134447 -0.153702
vt 0.169528 -0.152769
vt 0.175306 -0.153798
vt 0.339369 -0.153847
vt 0.344083 -0.151938
vt 0.355556 -0.148243
vt 0.134447 -0.153702
vt 0.175306 -0.153798
vt 0.181291 -0.154123
vt 0.181291 -0.154123
vt 0.187207 -0.153771
vt 0.226263 -0.153708
vt 0.181291 -0.154123
vt 0.226263 -0.153708
vt 0.230729 -0.15497
vt 0.134447 -0.153702
vt 0.181291 -0.154123
vt 0.230729 -0.15497
vt 0.244167 -0.15497
vt 0.248514 -0.153708
vt 0.314393 -0.153701
vt 0.244167 -0.15497
vt 0.314393 -0.153701
vt 0.319395 -0.155032
vt 0.0320511 -0.155078
vt 0.0364039 -0.153722
vt 0.10948 -0.153671
vt 0.0320511 -0.155078
vt 0.10948 -0.153671
vt 0.114359 -0.155162
vt 0.129476 -0.155193
vt 0.134447 -0.153702
vt 0.230729 -0.15497
vt 0.0275827 -0.155739
vt 0.0320511 -0.155078
vt 0.114359 -0.155162
vt 0.0275827 -0.155739
vt 0.114359 -0.155162
vt 0.119301 -0.155739
vt 0.124523 -0.155739
vt 0.129476 -0.155193
vt 0.230729 -0.15497
vt 0.124523 -0.155739
vt 0.230729 -0.15497
vt 0.235155 -0.155739
vt 0.239741 -0.155739
vt 0.244167 -0.15497
vt 0.319395 -0.155032
vt 0.239741 -0.155739
vt 0.319395 -0.155032
vt 0.324372 -0.155739
vt 7.565e-18 -0.166667
vt 8.54683e-18 -0.147876
vt 0.0143233 -0.153733
vt 7.565e-18 -0.166667
vt 0.0143233 -0.153733
vt 0.0186761 -0.155062
vt 7.565e-18 -0.166667
vt 0.0186761 -0.155062
vt 0.0227509 -0.155739
vt 7.565e-18 -0.166667
vt 0.0227509 -0.155739
vt 0.324372 -0.155739
vt 7.565e-18 -0.166667
vt 0.324372 -0.155739
vt 0.355556 -0.166667
vt 0.355556 -0.166667
vt 0.324372 -0.155739
vt 0.329485 -0.155739
vt 0.355556 -0.166667
vt 0.329485 -0.155739
vt 0.334545 -0.155115
vt 0.355556 -0.166667
vt 0.334545 -0.155115
vt 0.339369 -0.153847
vt 0.355556 -0.166667
vt 0.339369 -0.153847
vt 0.355556 -0.148243
# индексы вершин текстуры с 595 по 840

f  59/595 55/596 51/597
f  291/598 287/599 283/600
f  95/601 91/602 87/603
f  255/604 251/605 247/606
f  195/607 191/608 187/609
f  155/610 151/611 147/612
f  343/613 339/614 335/615
f  147/616 143/617 139/618
f  155/619 147/620 139/621
f  247/622 243/623 239/624
f  255/625 247/626 239/627
f  103/628 99/629 95/630
f  103/631 95/632 87/633
f  51/634 47/635 43/636
f  59/637 51/638 43/639
f  203/640 199/641 195/642
f  203/643 195/644 187/645
f  299/646 295/647 291/648
f  299/649 291/650 283/651
f  7/652 3/653 2/654
f  63/655 59/656 43/657
f  103/658 87/659 83/660
f  299/661 283/662 279/663
f  259/664 255/665 239/666
f  159/667 155/668 139/669
f  203/670 187/671 183/672
f  159/673 139/674 135/675
f  343/676 335/677 331/678
f  107/679 103/680 83/681
f  299/682 279/683 275/684
f  207/685 203/686 183/687
f  63/688 43/689 39/690
f  303/691 299/692 275/693
f  107/694 83/695 79/696
f  259/697 239/698 235/699
f  67/700 63/701 39/702
f  263/703 259/704 235/705
f  11/706 7/707 2/708
f  303/709 275/710 271/711
f  267/712 263/713 235/714
f  107/715 79/716 75/717
f  71/718 67/719 39/720
f  207/721 183/722 179/723
f  163/724 159/725 135/726
f  267/727 235/728 231/729
f  271/730 267/731 231/732
f  303/733 271/734 231/735
f  211/736 207/737 179/738
f  71/739 39/740 35/741
f  75/742 71/743 35/744
f  107/745 75/746 35/747
f  163/748 135/749 131/750
f  111/751 107/752 35/753
f  307/754 303/755 231/756
f  343/757 331/758 327/759
f  167/760 163/761 131/762
f  211/763 179/764 175/765
f  15/766 11/767 2/768
f  211/769 175/770 171/771
f  171/772 167/773 131/774
f  171/775 131/776 127/777
f  211/778 171/779 127/780
f  115/781 111/782 35/783
f  115/784 35/785 31/786
f  311/787 307/788 231/789
f  311/790 231/791 227/792
f  215/793 211/794 127/795
f  315/796 311/797 227/798
f  315/799 227/800 223/801
f  219/802 215/803 127/804
f  219/805 127/806 123/807
f  119/808 115/809 31/810
f  119/811 31/812 27/813
f  439/814 343/815 327/816
f  439/817 327/818 323/819
f  439/820 323/821 319/822
f  439/823 319/824 27/825
f  439/826 27/827 435/828
f  435/829 27/830 23/831
f  435/832 23/833 19/834
f  435/835 19/836 15/837
f  435/838 15/839 2/840
vt 4.73128e-34 -0.147876
vt 2.84444 -0.147876
vt 2.84444 -0.166667
vt 5.33248e-34 -0.166667
# индексы вершин текстуры с 841 по 844

f  344/841 343/842 439/843 346/844
vt 5.33248e-34 -1.02054e-17
vt 2.84444 8.86524e-18
vt 2.84444 0.416667
vt -2.17715e-17 0.416667
# индексы вершин текстуры с 845 по 848

f  346/845 439/846 435/847 347/848
