# File exported by Pixologic 3D Print Exporter for ZBrush
# http://www.pixologic.com
mtllib W 373.mtl

#Object: obj0
#Vertex Count: 143
#Face Count: 244
#Vertex Count: 143
v 0.001101 236.140335 10.718512
v 2000.000732 236.138641 10.717436
v 2000.001709 231.574554 10.773443
v 0.001101 231.575333 10.773703
v 0.000863 230.506516 9.838263
v 2000.001465 230.506454 9.837934
v 2000.001221 227.815826 0.001532
v 0.000029 227.816177 0.001410
v 2000.000488 147.466278 3.134489
v 0.001280 147.468033 3.135046
v 0.000386 146.331696 3.922728
v 2000.000000 146.330475 3.922277
v 2000.001465 94.291420 3.862402
v 0.001280 94.290016 3.863150
v 0.000982 93.041283 2.929686
v 2000.000977 93.042213 2.928106
v 2000.001953 92.159554 0.000624
v 0.001936 92.158730 0.000418
v 2000.000488 58.560482 0.000189
v 0.001340 58.559322 0.002211
v 2000.001709 55.732143 10.061682
v 0.001221 55.731899 10.061117
v 0.000505 54.546551 10.932753
v 2000.001953 54.545727 10.931929
v 2000.001953 41.765194 10.806677
v 0.001936 41.765347 10.805639
v 0.001519 40.662685 9.858725
v 2000.001465 40.662182 9.858023
v 2000.001953 37.930279 0.000456
v 0.000029 37.930767 0.000677
v 1999.999878 0.001724 0.000967
v 0.001221 0.000015 0.000677
v 2000.000977 0.001892 9.993681
v 0.001400 0.001297 9.991621
v 2000.000977 29.958799 9.992544
v 0.000505 29.957701 9.993528
v 2000.001953 30.301435 18.983892
v 0.000625 30.300520 18.983633
v 2000.000244 66.161949 18.983458
v 0.000625 66.161278 18.982710
v 2000.001221 66.578697 7.000685
v 0.000625 66.578545 7.000235
v 2000.001465 83.233940 7.001341
v 0.000625 83.232872 7.000013
v 2000.001953 83.716927 18.982244
v 0.001876 83.716347 18.982985
v 2000.000977 96.317360 18.983206
v 0.001221 96.318825 18.983984
v 2000.000610 96.594185 11.950750
v 0.000863 96.593361 11.950560
v 2000.001465 143.205200 11.950171
v 0.001221 143.204422 11.951590
v 2000.001465 143.475250 18.982695
v 0.001101 143.476028 18.982328
v 1999.999756 156.090576 18.982817
v 0.001340 156.089737 18.983755
v 2000.000488 156.553818 7.000151
v 0.000744 156.554245 7.001959
v 2000.000732 173.185516 7.001165
v 0.001340 173.185150 7.001226
v 2000.000244 173.653564 18.982626
v 0.000744 173.654175 18.982328
v 2000.000732 192.713715 18.983274
v 0.000267 192.712021 18.983435
v 2000.000244 193.238846 7.001501
v 0.002055 193.238281 7.001089
v 2000.001221 219.785110 7.001371
v 0.001459 219.786087 7.000532
v 2000.001465 220.272598 18.982191
v 0.001757 220.272766 18.983320
v 2000.001221 249.354187 18.982237
v 0.001280 249.354401 18.983938
v 2000.000732 249.801620 7.001455
v 0.001578 249.800827 7.000097
v 0.001280 249.800873 -0.000002
v 0.000863 239.815491 0.000288
v 0.000386 237.201279 9.696203
v 2000.001709 239.816132 0.001097
v 2000.001953 237.199997 9.696608
v 2000.001709 249.800766 0.001242
v 1000.000366 236.669250 10.208120
v 12.244370 236.669052 10.207083
v 12.244132 231.041290 10.305555
v 1000.001709 231.039291 10.305792
v 1987.758545 236.669922 10.206778
v 1987.756836 231.040878 10.306349
v 11.139062 146.899734 3.528944
v 1000.002075 146.899857 3.527838
v 11.205879 94.292152 3.863302
v 1000.000427 94.292397 3.862478
v 1000.000671 93.042976 2.929533
v 11.073199 93.041908 2.929525
v 1988.862549 146.900192 3.528799
v 1988.795898 94.291878 3.862402
v 1988.928955 93.043633 2.928877
v 12.214807 55.137005 10.496672
v 1000.001831 55.137630 10.496710
v 12.215522 41.214504 10.333166
v 1000.001465 41.214947 10.332960
v 1987.788452 55.138546 10.496771
v 1987.786133 41.213253 10.331915
v 10.743049 227.880630 0.001410
v 10.743049 227.815033 0.001410
v 10.747996 239.814606 0.000288
v 10.742929 148.558075 0.000830
v 219.209320 227.815262 0.001364
v 10.742572 92.951698 0.000426
v 10.742572 92.158958 0.000418
v 10.744182 37.932888 0.000677
v 10.743883 58.560863 0.002203
v 10.744002 46.877254 0.001349
v 10.743883 58.448513 0.002203
v 1989.260620 37.929607 0.000464
v 1989.260620 38.041073 0.000471
v 1989.259155 58.557552 0.000204
v 1823.293091 92.159004 0.000609
v 1482.882446 227.815155 0.001112
v 1989.260376 148.557251 0.000807
v 1235.797729 239.814819 0.000784
v 1000.000305 227.816315 0.001211
v 1000.019592 239.814529 0.000693
v 763.913635 148.557343 0.000677
v 1989.259888 234.073608 0.001074
v 1989.195190 227.814163 0.001051
v 1989.260010 239.023087 0.001089
v 1989.260010 239.751678 0.001097
v 1989.260010 239.815582 0.001089
v 1000.001343 37.931301 0.000578
v 999.905640 58.560207 0.001204
v 1000.000671 58.560207 0.001204
v 1000.095764 58.560207 0.001204
v 1000.001587 92.159584 0.000525
v 1989.216064 92.158928 0.000624
v 1989.261230 92.158928 0.000624
v 1000.012329 148.557114 0.000700
v 1733.164551 58.560329 0.000464
v 1399.377075 92.159309 0.000571
v 1837.440674 227.814453 0.001036
v 1107.129272 148.557175 0.000708
v 677.560669 37.931042 0.000601
v 1498.074341 37.930386 0.000517
v 1481.203247 37.930416 0.000517
v 1423.154663 58.560421 0.000777
g obj0
#Face Count: 244
f 19 18 137
f 19 137 116
f 19 116 133
f 19 133 134
f 19 134 17
f 18 19 136
f 18 136 143
f 18 143 131
f 18 131 130
f 18 130 129
f 18 129 110
f 18 110 20
f 31 30 142
f 31 142 141
f 31 141 113
f 31 113 29
f 30 31 32
f 32 31 33 34
f 34 33 35 36
f 36 35 37 38
f 38 37 39 40
f 40 39 41 42
f 42 41 43 44
f 44 43 45 46
f 46 45 47 48
f 48 47 49 50
f 50 49 51 52
f 52 51 53 54
f 54 53 55 56
f 56 55 57 58
f 58 57 59 60
f 60 59 61 62
f 62 61 63 64
f 64 63 65 66
f 66 65 67 68
f 68 67 69 70
f 70 69 71 72
f 72 71 73 74
f 46 48 50
f 52 54 56
f 23 26 38
f 23 38 40
f 1 4 70
f 1 70 72
f 22 23 40
f 38 26 27
f 70 4 5
f 36 38 27
f 77 1 72
f 34 36 27
f 22 40 42
f 44 46 50
f 44 50 52
f 52 56 58
f 44 52 58
f 60 62 64
f 60 64 66
f 68 70 5
f 77 72 74
f 14 42 44
f 14 66 68
f 11 14 68
f 10 11 68
f 42 14 15
f 32 34 27
f 32 27 30
f 20 22 42
f 20 42 15
f 20 15 18
f 8 10 68
f 8 68 5
f 76 77 74
f 76 74 75
f 55 53 51
f 49 47 45
f 25 24 39
f 25 39 37
f 3 2 71
f 3 71 69
f 39 24 21
f 28 25 37
f 6 3 69
f 28 37 35
f 71 2 79
f 28 35 33
f 73 71 79
f 6 69 67
f 65 63 61
f 65 61 59
f 57 55 51
f 57 51 49
f 49 45 43
f 57 49 43
f 41 39 21
f 67 65 13
f 13 43 41
f 67 13 12
f 67 12 9
f 16 13 41
f 80 73 78
f 78 73 79
f 7 6 67
f 7 67 9
f 17 16 19
f 19 16 41
f 19 41 21
f 29 28 31
f 31 28 33
f 74 73 80 75
f 75 80 78 76
f 57 43 13
f 59 57 13
f 13 65 59
f 14 44 58
f 60 66 14
f 14 58 60
f 22 20 30
f 22 30 27
f 23 22 27
f 23 27 26
f 142 30 109
f 142 109 140
f 142 140 128
f 20 112 111
f 20 111 109
f 20 109 30
f 29 113 114
f 19 29 115
f 19 115 136
f 110 112 20
f 115 29 114
f 29 19 21
f 29 21 24
f 28 29 24
f 28 24 25
f 7 78 79
f 79 2 3
f 79 3 6
f 79 6 7
f 78 7 9
f 118 138 124
f 118 124 78
f 78 124 123
f 78 123 125
f 17 134 118
f 17 118 78
f 138 118 139
f 138 139 135
f 138 135 122
f 108 132 137
f 108 137 18
f 108 18 107
f 106 120 117
f 106 117 138
f 106 138 103
f 103 138 122
f 103 122 8
f 8 122 105
f 107 18 8
f 107 8 105
f 103 8 102
f 78 125 126
f 78 126 127
f 78 127 119
f 78 119 121
f 78 121 104
f 78 104 76
f 102 8 76
f 102 76 104
f 18 15 14
f 8 18 14
f 10 8 14
f 10 14 11
f 16 17 78
f 13 16 78
f 13 78 9
f 13 9 12
f 77 76 8
f 4 1 77
f 5 4 77
f 5 77 8
f 83 82 81 84
f 103 83 84
f 120 106 103
f 120 103 84
f 82 104 121 81
f 82 83 103 104
f 86 84 81 85
f 124 117 120
f 124 120 84
f 86 124 84
f 85 81 121
f 119 127 85
f 119 85 121
f 85 127 126
f 85 126 125
f 85 125 123
f 85 123 124
f 86 85 124
f 102 104 103
f 124 138 117
f 87 105 135 88
f 89 87 88 90
f 108 92 91 132
f 92 89 90 91
f 108 105 87 92
f 89 92 87
f 93 88 135
f 139 118 93
f 139 93 135
f 94 90 88 93
f 133 116 137
f 133 132 91
f 95 134 133
f 95 133 91
f 95 91 90 94
f 134 95 93 118
f 93 95 94
f 108 107 105
f 105 122 135
f 132 133 137
f 110 129 96
f 129 130 97
f 129 97 96
f 98 96 97 99
f 109 98 99
f 128 140 109
f 128 109 99
f 96 98 109
f 96 109 111
f 96 111 112
f 96 112 110
f 130 131 100
f 130 100 97
f 100 131 143
f 100 143 115
f 101 99 97 100
f 113 141 142
f 113 142 128
f 113 128 99
f 101 113 99
f 100 115 113 101
f 114 113 115
f 136 115 143
