# FILE W 371.obj
mtllib W 371.mtl
trace_obj W 371.obj
shadow_obj W 371.obj

g Конструктив_-_Стены_Несущие Кирпич_-_Красный FLAT_PART

usemtl Кирпич_-_Красный

v 0 -15.3939 -98.5176
v 2000 -15.3939 -98.5176
v 2000 -17.5469 -90.4824
v 0 -17.5469 -90.4824
v 0 -19.4788 -89
v 2000 -19.4788 -89
v 2000 -24.4429 -89
v 0 -24.4429 -89
v 0 -26.3747 -90.4824
v 2000 -26.3747 -90.4824
v 2000 -28.5278 -98.5176
v 0 -28.5278 -98.5176
v 0 -30.4596 -100
v 2000 -30.4596 -100
v 2000 -54.6203 -100
v 0 -54.6203 -100
v 0 -56.5521 -98.5176
v 2000 -56.5521 -98.5176
v 2000 -58.7052 -90.4824
v 0 -58.7052 -90.4824
v 0 -60.637 -89
v 2000 -60.637 -89
v 2000 -74.431 -89
v 0 -74.431 -89
v 0 -76.3628 -90.4824
v 2000 -76.3628 -90.4824
v 2000 -78.5159 -98.5176
v 0 -78.5159 -98.5176
v 0 -80.4477 -100
v 2000 -80.4477 -100
v 2000 -104.608 -100
v 0 -104.608 -100
v 0 -106.54 -98.5176
v 2000 -106.54 -98.5176
v 2000 -108.693 -90.4824
v 0 -108.693 -90.4824
v 0 -110.625 -89
v 2000 -110.625 -89
v 2000 -124.419 -89
v 0 -124.419 -89
v 0 -126.351 -90.4824
v 2000 -126.351 -90.4824
v 2000 -128.504 -98.5176
v 0 -128.504 -98.5176
v 0 -130.436 -100
v 2000 -130.436 -100
v 2000 -154.596 -100
v 0 -154.596 -100
v 0 -156.528 -98.5176
v 2000 -156.528 -98.5176
v 2000 -158.681 -90.4824
v 0 -158.681 -90.4824
v 0 -160.613 -89
v 2000 -160.613 -89
v 2000 -174.407 -89
v 0 -174.407 -89
v 0 -176.339 -90.4824
v 2000 -176.339 -90.4824
v 2000 -178.492 -98.5167
v 0 -178.492 -98.5167
v 0 -180.425 -99.9991
v 2000 -180.425 -99.9991
v 2000 -204.59 -99.9843
v 0 -204.59 -99.9843
v 0 -206.521 -98.5019
v 2000 -206.521 -98.5019
v 2000 -208.669 -90.4824
v 0 -208.669 -90.4824
v 0 -210.601 -89
v 2000 -210.601 -89
v 2000 -224.395 -89
v 0 -224.395 -89
v 0 -226.327 -90.4824
v 2000 -226.327 -90.4824
v 2000 -228.48 -98.5176
v 0 -228.48 -98.5176
v 0 -230.412 -100
v 2000 -230.412 -100
v 2000 -250 -100
v 0 -250 -100
v 0 -250 -100
v 2000 -250 -100
v 2000 -250 -93
v 0 -250 -93
v 0 -250 -93
v 2000 -250 -93
v 2000 -235 -93
v 0 -235 -93
v 0 -235 -93
v 2000 -235 -93
v 2000 -234.581 -81
v 0 -234.581 -81
v 0 -234.581 -81
v 2000 -234.581 -81
v 2000 -200.419 -81
v 0 -200.419 -81
v 0 -200.419 -81
v 2000 -200.419 -81
v 2000 -200 -93
v 0 -200 -93
v 0 -200 -93
v 2000 -200 -93
v 2000 -185 -93
v 0 -185 -93
v 0 -185 -93
v 2000 -185 -93
v 2000 -184.581 -81
v 0 -184.581 -81
v 0 -184.581 -81
v 2000 -184.581 -81
v 2000 -150.419 -81
v 0 -150.419 -81
v 0 -150.419 -81
v 2000 -150.419 -81
v 2000 -150 -93
v 0 -150 -93
v 0 -150 -93
v 2000 -150 -93
v 2000 -135 -93
v 0 -135 -93
v 0 -135 -93
v 2000 -135 -93
v 2000 -134.581 -81
v 0 -134.581 -81
v 0 -134.581 -81
v 2000 -134.581 -81
v 2000 -100.419 -81
v 0 -100.419 -81
v 0 -100.419 -81
v 2000 -100.419 -81
v 2000 -100 -93
v 0 -100 -93
v 0 -100 -93
v 2000 -100 -93
v 2000 -85 -93
v 0 -85 -93
v 0 -85 -93
v 2000 -85 -93
v 2000 -84.5809 -81
v 0 -84.5809 -81
v 0 -84.5809 -81
v 2000 -84.5809 -81
v 2000 -50.4191 -81
v 0 -50.4191 -81
v 0 -50.4191 -81
v 2000 -50.4191 -81
v 2000 -50 -93
v 0 -50 -93
v 0 -50 -93
v 2000 -50 -93
v 2000 -35 -93
v 0 -35 -93
v 0 -35 -93
v 2000 -35 -93
v 2000 -34.5809 -81
v 0 -34.5809 -81
v 0 -34.5809 -81
v 2000 -34.5809 -81
v 2000 -0.419051 -81
v 0 -0.419051 -81
v 0 -0.419051 -81
v 2000 -0.419051 -81
v 2000 1.11022e-13 -93
v 0 0 -93
v 0 0 -93
v 0 0 -100
v 0 -13.462 -100
v 0 -14.1049 -99.8939
v 0 -14.6795 -99.5867
v 0 -15.125 -99.1111
v 0 -15.3939 -98.5176
v 0 -17.5469 -90.4824
v 0 -17.8158 -89.8889
v 0 -18.2612 -89.4133
v 0 -18.8359 -89.1061
v 0 -19.4788 -89
v 0 -24.4429 -89
v 0 -25.0857 -89.1061
v 0 -25.6604 -89.4133
v 0 -26.1058 -89.8889
v 0 -26.3747 -90.4824
v 0 -28.5278 -98.5176
v 0 -28.7967 -99.1111
v 0 -29.2421 -99.5867
v 0 -29.8167 -99.8939
v 0 -30.4596 -100
v 0 -54.6203 -100
v 0 -55.2632 -99.8939
v 0 -55.8378 -99.5867
v 0 -56.2832 -99.1111
v 0 -56.5521 -98.5176
v 0 -58.7052 -90.4824
v 0 -58.9741 -89.8889
v 0 -59.4195 -89.4133
v 0 -59.9941 -89.1061
v 0 -60.637 -89
v 0 -74.431 -89
v 0 -75.0738 -89.1061
v 0 -75.6485 -89.4133
v 0 -76.0939 -89.8889
v 0 -76.3628 -90.4824
v 0 -78.5159 -98.5176
v 0 -78.7848 -99.1111
v 0 -79.2302 -99.5867
v 0 -79.8048 -99.8939
v 0 -80.4477 -100
v 0 -104.608 -100
v 0 -105.251 -99.8939
v 0 -105.826 -99.5867
v 0 -106.271 -99.1111
v 0 -106.54 -98.5176
v 0 -108.693 -90.4824
v 0 -108.962 -89.8889
v 0 -109.408 -89.4133
v 0 -109.982 -89.1061
v 0 -110.625 -89
v 0 -124.419 -89
v 0 -125.062 -89.1061
v 0 -125.637 -89.4133
v 0 -126.082 -89.8889
v 0 -126.351 -90.4824
v 0 -128.504 -98.5176
v 0 -128.773 -99.1111
v 0 -129.218 -99.5867
v 0 -129.793 -99.8939
v 0 -130.436 -100
v 0 -154.596 -100
v 0 -155.239 -99.8939
v 0 -155.814 -99.5867
v 0 -156.259 -99.1111
v 0 -156.528 -98.5176
v 0 -158.681 -90.4824
v 0 -158.95 -89.8889
v 0 -159.396 -89.4133
v 0 -159.97 -89.1061
v 0 -160.613 -89
v 0 -174.407 -89
v 0 -175.05 -89.1061
v 0 -175.625 -89.4133
v 0 -176.07 -89.8889
v 0 -176.339 -90.4824
v 0 -178.492 -98.5167
v 0 -178.761 -99.1105
v 0 -179.207 -99.5861
v 0 -179.782 -99.8932
v 0 -180.425 -99.9991
v 0 -204.59 -99.9843
v 0 -205.233 -99.8778
v 0 -205.807 -99.5706
v 0 -206.252 -99.0951
v 0 -206.521 -98.5019
v 0 -208.669 -90.4824
v 0 -208.938 -89.8889
v 0 -209.384 -89.4133
v 0 -209.958 -89.1061
v 0 -210.601 -89
v 0 -224.395 -89
v 0 -225.038 -89.1061
v 0 -225.613 -89.4133
v 0 -226.058 -89.8889
v 0 -226.327 -90.4824
v 0 -228.48 -98.5176
v 0 -228.749 -99.1111
v 0 -229.194 -99.5867
v 0 -229.769 -99.8939
v 0 -230.412 -100
v 0 -250 -100
v 0 -250 -93
v 0 -235 -93
v 0 -234.581 -81
v 0 -200.419 -81
v 0 -200 -93
v 0 -185 -93
v 0 -184.581 -81
v 0 -150.419 -81
v 0 -150 -93
v 0 -135 -93
v 0 -134.581 -81
v 0 -100.419 -81
v 0 -100 -93
v 0 -85 -93
v 0 -84.5809 -81
v 0 -50.4191 -81
v 0 -50 -93
v 0 -35 -93
v 0 -34.5809 -81
v 0 -0.419051 -81
v 2000 -13.462 -100
v 2000 1.11022e-13 -100
v 2000 1.11022e-13 -93
v 2000 -0.419051 -81
v 2000 -34.5809 -81
v 2000 -35 -93
v 2000 -50 -93
v 2000 -50.4191 -81
v 2000 -84.5809 -81
v 2000 -85 -93
v 2000 -100 -93
v 2000 -100.419 -81
v 2000 -134.581 -81
v 2000 -135 -93
v 2000 -150 -93
v 2000 -150.419 -81
v 2000 -184.581 -81
v 2000 -185 -93
v 2000 -200 -93
v 2000 -200.419 -81
v 2000 -234.581 -81
v 2000 -235 -93
v 2000 -250 -93
v 2000 -250 -100
v 2000 -230.412 -100
v 2000 -229.769 -99.8939
v 2000 -229.194 -99.5867
v 2000 -228.749 -99.1111
v 2000 -228.48 -98.5176
v 2000 -226.327 -90.4824
v 2000 -226.058 -89.8889
v 2000 -225.613 -89.4133
v 2000 -225.038 -89.1061
v 2000 -224.395 -89
v 2000 -210.601 -89
v 2000 -209.958 -89.1061
v 2000 -209.384 -89.4133
v 2000 -208.938 -89.8889
v 2000 -208.669 -90.4824
v 2000 -206.521 -98.5019
v 2000 -206.252 -99.0951
v 2000 -205.807 -99.5706
v 2000 -205.233 -99.8778
v 2000 -204.59 -99.9843
v 2000 -180.425 -99.9991
v 2000 -179.782 -99.8932
v 2000 -179.207 -99.5861
v 2000 -178.761 -99.1105
v 2000 -178.492 -98.5167
v 2000 -176.339 -90.4824
v 2000 -176.07 -89.8889
v 2000 -175.625 -89.4133
v 2000 -175.05 -89.1061
v 2000 -174.407 -89
v 2000 -160.613 -89
v 2000 -159.97 -89.1061
v 2000 -159.396 -89.4133
v 2000 -158.95 -89.8889
v 2000 -158.681 -90.4824
v 2000 -156.528 -98.5176
v 2000 -156.259 -99.1111
v 2000 -155.814 -99.5867
v 2000 -155.239 -99.8939
v 2000 -154.596 -100
v 2000 -130.436 -100
v 2000 -129.793 -99.8939
v 2000 -129.218 -99.5867
v 2000 -128.773 -99.1111
v 2000 -128.504 -98.5176
v 2000 -126.351 -90.4824
v 2000 -126.082 -89.8889
v 2000 -125.637 -89.4133
v 2000 -125.062 -89.1061
v 2000 -124.419 -89
v 2000 -110.625 -89
v 2000 -109.982 -89.1061
v 2000 -109.408 -89.4133
v 2000 -108.962 -89.8889
v 2000 -108.693 -90.4824
v 2000 -106.54 -98.5176
v 2000 -106.271 -99.1111
v 2000 -105.826 -99.5867
v 2000 -105.251 -99.8939
v 2000 -104.608 -100
v 2000 -80.4477 -100
v 2000 -79.8048 -99.8939
v 2000 -79.2302 -99.5867
v 2000 -78.7848 -99.1111
v 2000 -78.5159 -98.5176
v 2000 -76.3628 -90.4824
v 2000 -76.0939 -89.8889
v 2000 -75.6485 -89.4133
v 2000 -75.0738 -89.1061
v 2000 -74.431 -89
v 2000 -60.637 -89
v 2000 -59.9941 -89.1061
v 2000 -59.4195 -89.4133
v 2000 -58.9741 -89.8889
v 2000 -58.7052 -90.4824
v 2000 -56.5521 -98.5176
v 2000 -56.2832 -99.1111
v 2000 -55.8378 -99.5867
v 2000 -55.2632 -99.8939
v 2000 -54.6203 -100
v 2000 -30.4596 -100
v 2000 -29.8167 -99.8939
v 2000 -29.2421 -99.5867
v 2000 -28.7967 -99.1111
v 2000 -28.5278 -98.5176
v 2000 -26.3747 -90.4824
v 2000 -26.1058 -89.8889
v 2000 -25.6604 -89.4133
v 2000 -25.0857 -89.1061
v 2000 -24.4429 -89
v 2000 -19.4788 -89
v 2000 -18.8359 -89.1061
v 2000 -18.2612 -89.4133
v 2000 -17.8158 -89.8889
v 2000 -17.5469 -90.4824
v 2000 -15.3939 -98.5176
v 2000 -15.125 -99.1111
v 2000 -14.6795 -99.5867
v 2000 -14.1049 -99.8939
v 0 0 -93
v 2000 1.11022e-13 -93
v 2000 1.11022e-13 -100
v 0 0 -100
v 0 0 -100
v 2000 1.11022e-13 -100
v 2000 -13.462 -100
v 0 -13.462 -100
# индексы вершин с 1 по 418

s off
vt -1.34059e-18 -0.164196
vt 2.84444 -0.164196
vt 2.84444 -0.150804
vt -1.52809e-18 -0.150804
# индексы вершин текстуры с 1 по 4

f  1/1 2/2 3/3 4/4
vt -1.69633e-18 0.0324646
vt 2.84444 0.0324646
vt 2.84444 0.0407381
vt -2.12863e-18 0.0407381
# индексы вершин текстуры с 5 по 8

f  5/5 6/6 7/7 8/8
vt -2.29687e-18 -0.150804
vt 2.84444 -0.150804
vt 2.84444 -0.164196
vt -2.48437e-18 -0.164196
# индексы вершин текстуры с 9 по 12

f  9/9 10/10 11/11 12/12
vt -2.65261e-18 0.050766
vt 2.84444 0.050766
vt 2.84444 0.0910338
vt -4.75666e-18 0.0910338
# индексы вершин текстуры с 13 по 16

f  13/13 14/14 15/15 16/16
vt -4.9249e-18 -0.164196
vt 2.84444 -0.164196
vt 2.84444 -0.150804
vt -5.1124e-18 -0.150804
# индексы вершин текстуры с 17 по 20

f  17/17 18/18 19/19 20/20
vt -5.28064e-18 0.101062
vt 2.84444 0.101062
vt 2.84444 0.124052
vt -6.48189e-18 0.124052
# индексы вершин текстуры с 21 по 24

f  21/21 22/22 23/23 24/24
vt -6.65013e-18 -0.150804
vt 2.84444 -0.150804
vt 2.84444 -0.164196
vt -6.83763e-18 -0.164196
# индексы вершин текстуры с 25 по 28

f  25/25 26/26 27/27 28/28
vt -7.00587e-18 0.13408
vt 2.84444 0.13408
vt 2.84444 0.174347
vt -9.10992e-18 0.174347
# индексы вершин текстуры с 29 по 32

f  29/29 30/30 31/31 32/32
vt -9.27816e-18 -0.164196
vt 2.84444 -0.164196
vt 2.84444 -0.150804
vt -9.46566e-18 -0.150804
# индексы вершин текстуры с 33 по 36

f  33/33 34/34 35/35 36/36
vt -9.6339e-18 0.184375
vt 2.84444 0.184375
vt 2.84444 0.207365
vt -1.08352e-17 0.207365
# индексы вершин текстуры с 37 по 40

f  37/37 38/38 39/39 40/40
vt -1.10034e-17 -0.150804
vt 2.84444 -0.150804
vt 2.84444 -0.164196
vt -1.11909e-17 -0.164196
# индексы вершин текстуры с 41 по 44

f  41/41 42/42 43/43 44/44
vt -1.13591e-17 0.217393
vt 2.84444 0.217393
vt 2.84444 0.257661
vt -1.34632e-17 0.257661
# индексы вершин текстуры с 45 по 48

f  45/45 46/46 47/47 48/48
vt -1.36314e-17 -0.164196
vt 2.84444 -0.164196
vt 2.84444 -0.150804
vt -1.38189e-17 -0.150804
# индексы вершин текстуры с 49 по 52

f  49/49 50/50 51/51 52/52
vt -1.39872e-17 0.267689
vt 2.84444 0.267689
vt 2.84444 0.290679
vt -1.51884e-17 0.290679
# индексы вершин текстуры с 53 по 56

f  53/53 54/54 55/55 56/56
vt -1.53567e-17 -0.150804
vt 2.84444 -0.150804
vt 2.84444 -0.164194
vt -1.55441e-17 -0.164194
# индексы вершин текстуры с 57 по 60

f  57/57 58/58 59/59 60/60
vt -1.57125e-17 0.300708
vt 2.84444 0.300708
vt 2.84444 0.340983
vt -1.78169e-17 0.340983
# индексы вершин текстуры с 61 по 64

f  61/61 62/62 63/63 64/64
vt -1.79851e-17 -0.16417
vt 2.84444 -0.16417
vt 2.84444 -0.150804
vt -1.81722e-17 -0.150804
# индексы вершин текстуры с 65 по 68

f  65/65 66/66 67/67 68/68
vt -1.83404e-17 0.351002
vt 2.84444 0.351002
vt 2.84444 0.373992
vt -1.95417e-17 0.373992
# индексы вершин текстуры с 69 по 72

f  69/69 70/70 71/71 72/72
vt -1.97099e-17 -0.150804
vt 2.84444 -0.150804
vt 2.84444 -0.164196
vt -1.98974e-17 -0.164196
# индексы вершин текстуры с 73 по 76

f  73/73 74/74 75/75 76/76
vt -2.00657e-17 0.38402
vt 2.84444 0.38402
vt 2.84444 0.416667
vt -2.17715e-17 0.416667
# индексы вершин текстуры с 77 по 80

f  77/77 78/78 79/79 80/80
vt -2.17715e-17 -0.166667
vt 2.84444 -0.166667
vt 2.84444 -0.155
vt -2.17715e-17 -0.155
# индексы вершин текстуры с 81 по 84

f  80/81 79/82 83/83 84/84
vt -2.17715e-17 0.416667
vt 2.84444 0.416667
vt 2.84444 0.391667
vt -2.04652e-17 0.391667
# индексы вершин текстуры с 85 по 88

f  84/85 83/86 87/87 88/88
vt -2.04652e-17 -0.155
vt 2.84444 -0.155
vt 2.84444 -0.135
vt -2.04287e-17 -0.135
# индексы вершин текстуры с 89 по 92

f  88/89 87/90 91/91 92/92
vt -2.04287e-17 0.390968
vt 2.84444 0.390968
vt 2.84444 0.334032
vt -1.74537e-17 0.334032
# индексы вершин текстуры с 93 по 96

f  92/93 91/94 95/95 96/96
vt -1.74537e-17 -0.135
vt 2.84444 -0.135
vt 2.84444 -0.155
vt -1.74172e-17 -0.155
# индексы вершин текстуры с 97 по 100

f  96/97 95/98 99/99 100/100
vt -1.74172e-17 0.333333
vt 2.84444 0.333333
vt 2.84444 0.308333
vt -1.61109e-17 0.308333
# индексы вершин текстуры с 101 по 104

f  100/101 99/102 103/103 104/104
vt -1.61109e-17 -0.155
vt 2.84444 -0.155
vt 2.84444 -0.135
vt -1.60744e-17 -0.135
# индексы вершин текстуры с 105 по 108

f  104/105 103/106 107/107 108/108
vt -1.60744e-17 0.307635
vt 2.84444 0.307635
vt 2.84444 0.250698
vt -1.30994e-17 0.250698
# индексы вершин текстуры с 109 по 112

f  108/109 107/110 111/111 112/112
vt -1.30994e-17 -0.135
vt 2.84444 -0.135
vt 2.84444 -0.155
vt -1.30629e-17 -0.155
# индексы вершин текстуры с 113 по 116

f  112/113 111/114 115/115 116/116
vt -1.30629e-17 0.25
vt 2.84444 0.25
vt 2.84444 0.225
vt -1.17566e-17 0.225
# индексы вершин текстуры с 117 по 120

f  116/117 115/118 119/119 120/120
vt -1.17566e-17 -0.155
vt 2.84444 -0.155
vt 2.84444 -0.135
vt -1.17201e-17 -0.135
# индексы вершин текстуры с 121 по 124

f  120/121 119/122 123/123 124/124
vt -1.17201e-17 0.224302
vt 2.84444 0.224302
vt 2.84444 0.167365
vt -8.74509e-18 0.167365
# индексы вершин текстуры с 125 по 128

f  124/125 123/126 127/127 128/128
vt -8.74509e-18 -0.135
vt 2.84444 -0.135
vt 2.84444 -0.155
vt -8.7086e-18 -0.155
# индексы вершин текстуры с 129 по 132

f  128/129 127/130 131/131 132/132
vt -8.7086e-18 0.166667
vt 2.84444 0.166667
vt 2.84444 0.141667
vt -7.40231e-18 0.141667
# индексы вершин текстуры с 133 по 136

f  132/133 131/134 135/135 136/136
vt -7.40231e-18 -0.155
vt 2.84444 -0.155
vt 2.84444 -0.135
vt -7.36582e-18 -0.135
# индексы вершин текстуры с 137 по 140

f  136/137 135/138 139/139 140/140
vt -7.36582e-18 0.140968
vt 2.84444 0.140968
vt 2.84444 0.0840317
vt -4.39079e-18 0.0840317
# индексы вершин текстуры с 141 по 144

f  140/141 139/142 143/143 144/144
vt -4.39079e-18 -0.135
vt 2.84444 -0.135
vt 2.84444 -0.155
vt -4.3543e-18 -0.155
# индексы вершин текстуры с 145 по 148

f  144/145 143/146 147/147 148/148
vt -4.3543e-18 0.0833333
vt 2.84444 0.0833333
vt 2.84444 0.0583333
vt -3.04801e-18 0.0583333
# индексы вершин текстуры с 149 по 152

f  148/149 147/150 151/151 152/152
vt -3.04801e-18 -0.155
vt 2.84444 -0.155
vt 2.84444 -0.135
vt -3.01152e-18 -0.135
# индексы вершин текстуры с 153 по 156

f  152/153 151/154 155/155 156/156
vt -3.01152e-18 0.0576349
vt 2.84444 0.0576349
vt 2.84444 0.000698418
vt -3.64935e-20 0.000698418
# индексы вершин текстуры с 157 по 160

f  156/157 155/158 159/159 160/160
vt -3.64935e-20 -0.135
vt 2.84444 -0.135
vt 2.84444 -0.155
vt 4.95921e-34 -0.155
# индексы вершин текстуры с 161 по 164

f  160/161 159/162 163/163 164/164
vt 0.299522 -0.148333
vt 0.31914 -0.148333
vt 0.333626 -0.135
vt 0.299522 -0.148333
vt 0.333626 -0.135
vt 0.28504 -0.135
vt 0.228428 -0.148333
vt 0.248046 -0.148333
vt 0.262515 -0.135
vt 0.228428 -0.148333
vt 0.262515 -0.135
vt 0.213929 -0.135
vt 0.157334 -0.148333
vt 0.176952 -0.148333
vt 0.191404 -0.135
vt 0.157334 -0.148333
vt 0.191404 -0.135
vt 0.142818 -0.135
vt 0.0862393 -0.148333
vt 0.105857 -0.148333
vt 0.120293 -0.135
vt 0.0862393 -0.148333
vt 0.120293 -0.135
vt 0.0717071 -0.135
vt 0.0277031 -0.148333
vt 0.0347632 -0.148333
vt 0.0491818 -0.135
vt 0.0277031 -0.148333
vt 0.0491818 -0.135
vt 0.000595983 -0.135
vt 0.333626 -0.135
vt 0.31914 -0.148333
vt 0.320054 -0.14851
vt 0.298608 -0.14851
vt 0.299522 -0.148333
vt 0.28504 -0.135
vt 0.262515 -0.135
vt 0.248046 -0.148333
vt 0.24896 -0.14851
vt 0.227513 -0.14851
vt 0.228428 -0.148333
vt 0.213929 -0.135
vt 0.191404 -0.135
vt 0.176952 -0.148333
vt 0.177866 -0.14851
vt 0.156419 -0.14851
vt 0.157334 -0.148333
vt 0.142818 -0.135
vt 0.120293 -0.135
vt 0.105857 -0.148333
vt 0.106772 -0.14851
vt 0.085325 -0.14851
vt 0.0862393 -0.148333
vt 0.0717071 -0.135
vt 0.0491818 -0.135
vt 0.0347632 -0.148333
vt 0.0356775 -0.14851
vt 0.0267888 -0.14851
vt 0.0277031 -0.148333
vt 0.000595983 -0.135
vt 0.333626 -0.135
vt 0.320054 -0.14851
vt 0.320871 -0.149022
vt 0.29779 -0.149022
vt 0.298608 -0.14851
vt 0.28504 -0.135
vt 0.262515 -0.135
vt 0.24896 -0.14851
vt 0.249777 -0.149022
vt 0.226696 -0.149022
vt 0.227513 -0.14851
vt 0.213929 -0.135
vt 0.191404 -0.135
vt 0.177866 -0.14851
vt 0.178683 -0.149022
vt 0.155602 -0.149022
vt 0.156419 -0.14851
vt 0.142818 -0.135
vt 0.120293 -0.135
vt 0.106772 -0.14851
vt 0.107589 -0.149022
vt 0.0845077 -0.149022
vt 0.085325 -0.14851
vt 0.0717071 -0.135
vt 0.0491818 -0.135
vt 0.0356775 -0.14851
vt 0.0364948 -0.149022
vt 0.0259715 -0.149022
vt 0.0267888 -0.14851
vt 0.000595983 -0.135
vt 0.333626 -0.135
vt 0.320871 -0.149022
vt 0.321505 -0.149815
vt 0.297157 -0.149815
vt 0.29779 -0.149022
vt 0.28504 -0.135
vt 0.262515 -0.135
vt 0.249777 -0.149022
vt 0.250411 -0.149815
vt 0.226063 -0.149815
vt 0.226696 -0.149022
vt 0.213929 -0.135
vt 0.191404 -0.135
vt 0.178683 -0.149022
vt 0.179317 -0.149815
vt 0.154968 -0.149815
vt 0.155602 -0.149022
vt 0.142818 -0.135
vt 0.120293 -0.135
vt 0.107589 -0.149022
vt 0.108222 -0.149815
vt 0.0838743 -0.149815
vt 0.0845077 -0.149022
vt 0.0717071 -0.135
vt 0.0491818 -0.135
vt 0.0364948 -0.149022
vt 0.0371283 -0.149815
vt 0.0253381 -0.149815
vt 0.0259715 -0.149022
vt 0.000595983 -0.135
vt 0.333626 -0.135
vt 0.321505 -0.149815
vt 0.321887 -0.150804
vt 0.296774 -0.150804
vt 0.297157 -0.149815
vt 0.28504 -0.135
vt 0.262515 -0.135
vt 0.250411 -0.149815
vt 0.250793 -0.150804
vt 0.22568 -0.150804
vt 0.226063 -0.149815
vt 0.213929 -0.135
vt 0.191404 -0.135
vt 0.179317 -0.149815
vt 0.179699 -0.150804
vt 0.154586 -0.150804
vt 0.154968 -0.149815
vt 0.142818 -0.135
vt 0.120293 -0.135
vt 0.108222 -0.149815
vt 0.108605 -0.150804
vt 0.0834918 -0.150804
vt 0.0838743 -0.149815
vt 0.0717071 -0.135
vt 0.0491818 -0.135
vt 0.0371283 -0.149815
vt 0.0375107 -0.150804
vt 0.0249556 -0.150804
vt 0.0253381 -0.149815
vt 0.000595983 -0.135
vt 0.334222 -0.155
vt 0.333626 -0.135
vt 0.321887 -0.150804
vt 0.296774 -0.150804
vt 0.28504 -0.135
vt 0.284444 -0.155
vt 0.263111 -0.155
vt 0.262515 -0.135
vt 0.250793 -0.150804
vt 0.22568 -0.150804
vt 0.213929 -0.135
vt 0.213333 -0.155
vt 0.192 -0.155
vt 0.191404 -0.135
vt 0.179699 -0.150804
vt 0.154586 -0.150804
vt 0.142818 -0.135
vt 0.142222 -0.155
vt 0.120889 -0.155
vt 0.120293 -0.135
vt 0.108605 -0.150804
vt 0.0834918 -0.150804
vt 0.0717071 -0.135
vt 0.0711111 -0.155
vt 0.0497778 -0.155
vt 0.0491818 -0.135
vt 0.0375107 -0.150804
vt 0.0249556 -0.150804
vt 0.000595983 -0.135
vt -8.099e-18 -0.155
vt 0.293718 -0.16417
vt 0.296774 -0.150804
vt 0.284444 -0.155
vt 0.293718 -0.16417
vt 0.284444 -0.155
vt 0.263111 -0.155
vt 0.334222 -0.155
vt 0.321887 -0.150804
vt 0.32495 -0.164196
vt 0.355556 -0.155
vt 0.334222 -0.155
vt 0.32495 -0.164196
vt 0.263111 -0.155
vt 0.250793 -0.150804
vt 0.253855 -0.164194
vt 0.293718 -0.16417
vt 0.263111 -0.155
vt 0.253855 -0.164194
vt 0.222618 -0.164196
vt 0.22568 -0.150804
vt 0.213333 -0.155
vt 0.222618 -0.164196
vt 0.213333 -0.155
vt 0.192 -0.155
vt 0.192 -0.155
vt 0.179699 -0.150804
vt 0.182761 -0.164196
vt 0.222618 -0.164196
vt 0.192 -0.155
vt 0.182761 -0.164196
vt 0.151524 -0.164196
vt 0.154586 -0.150804
vt 0.142222 -0.155
vt 0.151524 -0.164196
vt 0.142222 -0.155
vt 0.120889 -0.155
vt 0.120889 -0.155
vt 0.108605 -0.150804
vt 0.111667 -0.164196
vt 0.151524 -0.164196
vt 0.120889 -0.155
vt 0.111667 -0.164196
vt 0.0804297 -0.164196
vt 0.0834918 -0.150804
vt 0.0711111 -0.155
vt 0.0804297 -0.164196
vt 0.0711111 -0.155
vt 0.0497778 -0.155
vt 0.0497778 -0.155
vt 0.0375107 -0.150804
vt 0.0405728 -0.164196
vt 0.0804297 -0.164196
vt 0.0497778 -0.155
vt 0.0405728 -0.164196
vt 0.0218935 -0.164196
vt 0.0249556 -0.150804
vt -8.099e-18 -0.155
vt 0.293336 -0.165159
vt 0.293718 -0.16417
vt 0.253855 -0.164194
vt 0.355556 -0.155
vt 0.32495 -0.164196
vt 0.325332 -0.165185
vt 0.293336 -0.165159
vt 0.253855 -0.164194
vt 0.254238 -0.165184
vt 0.222236 -0.165185
vt 0.222618 -0.164196
vt 0.182761 -0.164196
vt 0.222236 -0.165185
vt 0.182761 -0.164196
vt 0.183144 -0.165185
vt 0.151141 -0.165185
vt 0.151524 -0.164196
vt 0.111667 -0.164196
vt 0.151141 -0.165185
vt 0.111667 -0.164196
vt 0.112049 -0.165185
vt 0.0800472 -0.165185
vt 0.0804297 -0.164196
vt 0.0405728 -0.164196
vt 0.0800472 -0.165185
vt 0.0405728 -0.164196
vt 0.0409553 -0.165185
vt 0.0215111 -0.165185
vt 0.0218935 -0.164196
vt -8.099e-18 -0.155
vt 0.292703 -0.165951
vt 0.293336 -0.165159
vt 0.254238 -0.165184
vt 0.355556 -0.155
vt 0.325332 -0.165185
vt 0.325965 -0.165978
vt 0.292703 -0.165951
vt 0.254238 -0.165184
vt 0.254872 -0.165977
vt 0.221602 -0.165978
vt 0.222236 -0.165185
vt 0.183144 -0.165185
vt 0.221602 -0.165978
vt 0.183144 -0.165185
vt 0.183777 -0.165978
vt 0.150508 -0.165978
vt 0.151141 -0.165185
vt 0.112049 -0.165185
vt 0.150508 -0.165978
vt 0.112049 -0.165185
vt 0.112683 -0.165978
vt 0.0794138 -0.165978
vt 0.0800472 -0.165185
vt 0.0409553 -0.165185
vt 0.0794138 -0.165978
vt 0.0409553 -0.165185
vt 0.0415888 -0.165978
vt 0.0208776 -0.165978
vt 0.0215111 -0.165185
vt -8.099e-18 -0.155
vt 0.291886 -0.166463
vt 0.292703 -0.165951
vt 0.254872 -0.165977
vt 0.355556 -0.155
vt 0.325965 -0.165978
vt 0.326783 -0.16649
vt 0.291886 -0.166463
vt 0.254872 -0.165977
vt 0.255689 -0.166489
vt 0.220785 -0.16649
vt 0.221602 -0.165978
vt 0.183777 -0.165978
vt 0.220785 -0.16649
vt 0.183777 -0.165978
vt 0.184594 -0.16649
vt 0.149691 -0.16649
vt 0.150508 -0.165978
vt 0.112683 -0.165978
vt 0.149691 -0.16649
vt 0.112683 -0.165978
vt 0.1135 -0.16649
vt 0.0785965 -0.16649
vt 0.0794138 -0.165978
vt 0.0415888 -0.165978
vt 0.0785965 -0.16649
vt 0.0415888 -0.165978
vt 0.042406 -0.16649
vt 0.0200603 -0.16649
vt 0.0208776 -0.165978
vt -8.099e-18 -0.155
vt 0.290972 -0.16664
vt 0.291886 -0.166463
vt 0.255689 -0.166489
vt 0.256604 -0.166665
vt 0.290972 -0.16664
vt 0.255689 -0.166489
vt 0.355556 -0.166667
vt 0.355556 -0.155
vt 0.326783 -0.16649
vt 0.355556 -0.166667
vt 0.326783 -0.16649
vt 0.327697 -0.166667
vt 0.219871 -0.166667
vt 0.220785 -0.16649
vt 0.184594 -0.16649
vt 0.219871 -0.166667
vt 0.184594 -0.16649
vt 0.185509 -0.166667
vt 0.148776 -0.166667
vt 0.149691 -0.16649
vt 0.1135 -0.16649
vt 0.148776 -0.166667
vt 0.1135 -0.16649
vt 0.114415 -0.166667
vt 0.0776822 -0.166667
vt 0.0785965 -0.16649
vt 0.042406 -0.16649
vt 0.0776822 -0.166667
vt 0.042406 -0.16649
vt 0.0433203 -0.166667
vt 0.019146 -0.166667
vt 0.0200603 -0.16649
vt -8.7086e-18 -0.166667
vt -8.7086e-18 -0.166667
vt 0.0200603 -0.16649
vt -8.099e-18 -0.155
# индексы вершин текстуры с 165 по 527

f  69/165 72/166 92/167
f  69/168 92/169 96/170
f  53/171 56/172 108/173
f  53/174 108/175 112/176
f  37/177 40/178 124/179
f  37/180 124/181 128/182
f  21/183 24/184 140/185
f  21/186 140/187 144/188
f  5/189 8/190 156/191
f  5/192 156/193 160/194
f  92/195 72/196 258/197
f  255/198 69/199 96/200
f  108/201 56/202 238/203
f  235/204 53/205 112/206
f  124/207 40/208 218/209
f  215/210 37/211 128/212
f  140/213 24/214 198/215
f  195/216 21/217 144/218
f  156/219 8/220 178/221
f  175/222 5/223 160/224
f  92/225 258/226 259/227
f  254/228 255/229 96/230
f  108/231 238/232 239/233
f  234/234 235/235 112/236
f  124/237 218/238 219/239
f  214/240 215/241 128/242
f  140/243 198/244 199/245
f  194/246 195/247 144/248
f  156/249 178/250 179/251
f  174/252 175/253 160/254
f  92/255 259/256 260/257
f  253/258 254/259 96/260
f  108/261 239/262 240/263
f  233/264 234/265 112/266
f  124/267 219/268 220/269
f  213/270 214/271 128/272
f  140/273 199/274 200/275
f  193/276 194/277 144/278
f  156/279 179/280 180/281
f  173/282 174/283 160/284
f  92/285 260/286 73/287
f  68/288 253/289 96/290
f  108/291 240/292 57/293
f  52/294 233/295 112/296
f  124/297 220/298 41/299
f  36/300 213/301 128/302
f  140/303 200/304 25/305
f  20/306 193/307 144/308
f  156/309 180/310 9/311
f  4/312 173/313 160/314
f  88/315 92/316 73/317
f  68/318 96/319 100/320
f  104/321 108/322 57/323
f  52/324 112/325 116/326
f  120/327 124/328 41/329
f  36/330 128/331 132/332
f  136/333 140/334 25/335
f  20/336 144/337 148/338
f  152/339 156/340 9/341
f  4/342 160/343 164/344
f  65/345 68/346 100/347
f  65/348 100/349 104/350
f  88/351 73/352 76/353
f  84/354 88/355 76/356
f  104/357 57/358 60/359
f  65/360 104/361 60/362
f  49/363 52/364 116/365
f  49/366 116/367 120/368
f  120/369 41/370 44/371
f  49/372 120/373 44/374
f  33/375 36/376 132/377
f  33/378 132/379 136/380
f  136/381 25/382 28/383
f  33/384 136/385 28/386
f  17/387 20/388 148/389
f  17/390 148/391 152/392
f  152/393 9/394 12/395
f  17/396 152/397 12/398
f  1/399 4/400 164/401
f  250/402 65/403 60/404
f  84/405 76/406 263/407
f  250/408 60/409 243/410
f  230/411 49/412 44/413
f  230/414 44/415 223/416
f  210/417 33/418 28/419
f  210/420 28/421 203/422
f  190/423 17/424 12/425
f  190/426 12/427 183/428
f  170/429 1/430 164/431
f  249/432 250/433 243/434
f  84/435 263/436 264/437
f  249/438 243/439 244/440
f  229/441 230/442 223/443
f  229/444 223/445 224/446
f  209/447 210/448 203/449
f  209/450 203/451 204/452
f  189/453 190/454 183/455
f  189/456 183/457 184/458
f  169/459 170/460 164/461
f  248/462 249/463 244/464
f  84/465 264/466 265/467
f  248/468 244/469 245/470
f  228/471 229/472 224/473
f  228/474 224/475 225/476
f  208/477 209/478 204/479
f  208/480 204/481 205/482
f  188/483 189/484 184/485
f  188/486 184/487 185/488
f  168/489 169/490 164/491
f  64/492 248/493 245/494
f  61/495 64/496 245/497
f  80/498 84/499 265/500
f  80/501 265/502 77/503
f  48/504 228/505 225/506
f  48/507 225/508 45/509
f  32/510 208/511 205/512
f  32/513 205/514 29/515
f  16/516 188/517 185/518
f  16/519 185/520 13/521
f  167/522 168/523 166/524
f  166/525 168/526 164/527
vt 0.0347632 -0.148333
vt 0.0277031 -0.148333
vt 0.000595983 -0.135
vt 0.0347632 -0.148333
vt 0.000595983 -0.135
vt 0.0491818 -0.135
vt 0.105857 -0.148333
vt 0.0862393 -0.148333
vt 0.0717071 -0.135
vt 0.105857 -0.148333
vt 0.0717071 -0.135
vt 0.120293 -0.135
vt 0.176952 -0.148333
vt 0.157334 -0.148333
vt 0.142818 -0.135
vt 0.176952 -0.148333
vt 0.142818 -0.135
vt 0.191404 -0.135
vt 0.248046 -0.148333
vt 0.228428 -0.148333
vt 0.213929 -0.135
vt 0.248046 -0.148333
vt 0.213929 -0.135
vt 0.262515 -0.135
vt 0.31914 -0.148333
vt 0.299522 -0.148333
vt 0.28504 -0.135
vt 0.31914 -0.148333
vt 0.28504 -0.135
vt 0.333626 -0.135
vt 0.000595983 -0.135
vt 0.0277031 -0.148333
vt 0.0267888 -0.14851
vt 0.0356775 -0.14851
vt 0.0347632 -0.148333
vt 0.0491818 -0.135
vt 0.0717071 -0.135
vt 0.0862393 -0.148333
vt 0.085325 -0.14851
vt 0.106772 -0.14851
vt 0.105857 -0.148333
vt 0.120293 -0.135
vt 0.142818 -0.135
vt 0.157334 -0.148333
vt 0.156419 -0.14851
vt 0.177866 -0.14851
vt 0.176952 -0.148333
vt 0.191404 -0.135
vt 0.213929 -0.135
vt 0.228428 -0.148333
vt 0.227513 -0.14851
vt 0.24896 -0.14851
vt 0.248046 -0.148333
vt 0.262515 -0.135
vt 0.28504 -0.135
vt 0.299522 -0.148333
vt 0.298608 -0.14851
vt 0.320054 -0.14851
vt 0.31914 -0.148333
vt 0.333626 -0.135
vt 0.000595983 -0.135
vt 0.0267888 -0.14851
vt 0.0259715 -0.149022
vt 0.0364948 -0.149022
vt 0.0356775 -0.14851
vt 0.0491818 -0.135
vt 0.0717071 -0.135
vt 0.085325 -0.14851
vt 0.0845077 -0.149022
vt 0.107589 -0.149022
vt 0.106772 -0.14851
vt 0.120293 -0.135
vt 0.142818 -0.135
vt 0.156419 -0.14851
vt 0.155602 -0.149022
vt 0.178683 -0.149022
vt 0.177866 -0.14851
vt 0.191404 -0.135
vt 0.213929 -0.135
vt 0.227513 -0.14851
vt 0.226696 -0.149022
vt 0.249777 -0.149022
vt 0.24896 -0.14851
vt 0.262515 -0.135
vt 0.28504 -0.135
vt 0.298608 -0.14851
vt 0.29779 -0.149022
vt 0.320871 -0.149022
vt 0.320054 -0.14851
vt 0.333626 -0.135
vt 0.000595983 -0.135
vt 0.0259715 -0.149022
vt 0.0253381 -0.149815
vt 0.0371283 -0.149815
vt 0.0364948 -0.149022
vt 0.0491818 -0.135
vt 0.0717071 -0.135
vt 0.0845077 -0.149022
vt 0.0838743 -0.149815
vt 0.108222 -0.149815
vt 0.107589 -0.149022
vt 0.120293 -0.135
vt 0.142818 -0.135
vt 0.155602 -0.149022
vt 0.154968 -0.149815
vt 0.179317 -0.149815
vt 0.178683 -0.149022
vt 0.191404 -0.135
vt 0.213929 -0.135
vt 0.226696 -0.149022
vt 0.226063 -0.149815
vt 0.250411 -0.149815
vt 0.249777 -0.149022
vt 0.262515 -0.135
vt 0.28504 -0.135
vt 0.29779 -0.149022
vt 0.297157 -0.149815
vt 0.321505 -0.149815
vt 0.320871 -0.149022
vt 0.333626 -0.135
vt 0.000595983 -0.135
vt 0.0253381 -0.149815
vt 0.0249556 -0.150804
vt 0.0375107 -0.150804
vt 0.0371283 -0.149815
vt 0.0491818 -0.135
vt 0.0717071 -0.135
vt 0.0838743 -0.149815
vt 0.0834918 -0.150804
vt 0.108605 -0.150804
vt 0.108222 -0.149815
vt 0.120293 -0.135
vt 0.142818 -0.135
vt 0.154968 -0.149815
vt 0.154586 -0.150804
vt 0.179699 -0.150804
vt 0.179317 -0.149815
vt 0.191404 -0.135
vt 0.213929 -0.135
vt 0.226063 -0.149815
vt 0.22568 -0.150804
vt 0.250793 -0.150804
vt 0.250411 -0.149815
vt 0.262515 -0.135
vt 0.28504 -0.135
vt 0.297157 -0.149815
vt 0.296774 -0.150804
vt 0.321887 -0.150804
vt 0.321505 -0.149815
vt 0.333626 -0.135
vt 8.17461e-18 -0.155
vt 0.000595983 -0.135
vt 0.0249556 -0.150804
vt 0.0375107 -0.150804
vt 0.0491818 -0.135
vt 0.0497778 -0.155
vt 0.0711111 -0.155
vt 0.0717071 -0.135
vt 0.0834918 -0.150804
vt 0.108605 -0.150804
vt 0.120293 -0.135
vt 0.120889 -0.155
vt 0.142222 -0.155
vt 0.142818 -0.135
vt 0.154586 -0.150804
vt 0.179699 -0.150804
vt 0.191404 -0.135
vt 0.192 -0.155
vt 0.213333 -0.155
vt 0.213929 -0.135
vt 0.22568 -0.150804
vt 0.250793 -0.150804
vt 0.262515 -0.135
vt 0.263111 -0.155
vt 0.284444 -0.155
vt 0.28504 -0.135
vt 0.296774 -0.150804
vt 0.321887 -0.150804
vt 0.333626 -0.135
vt 0.334222 -0.155
vt 0.284444 -0.155
vt 0.296774 -0.150804
vt 0.293718 -0.16417
vt 0.263111 -0.155
vt 0.284444 -0.155
vt 0.293718 -0.16417
vt 8.17461e-18 -0.155
vt 0.0249556 -0.150804
vt 0.0218935 -0.164196
vt 0.0405728 -0.164196
vt 0.0375107 -0.150804
vt 0.0497778 -0.155
vt 0.0405728 -0.164196
vt 0.0497778 -0.155
vt 0.0711111 -0.155
vt 0.0711111 -0.155
vt 0.0834918 -0.150804
vt 0.0804297 -0.164196
vt 0.0405728 -0.164196
vt 0.0711111 -0.155
vt 0.0804297 -0.164196
vt 0.111667 -0.164196
vt 0.108605 -0.150804
vt 0.120889 -0.155
vt 0.111667 -0.164196
vt 0.120889 -0.155
vt 0.142222 -0.155
vt 0.142222 -0.155
vt 0.154586 -0.150804
vt 0.151524 -0.164196
vt 0.111667 -0.164196
vt 0.142222 -0.155
vt 0.151524 -0.164196
vt 0.182761 -0.164196
vt 0.179699 -0.150804
vt 0.192 -0.155
vt 0.182761 -0.164196
vt 0.192 -0.155
vt 0.213333 -0.155
vt 0.213333 -0.155
vt 0.22568 -0.150804
vt 0.222618 -0.164196
vt 0.182761 -0.164196
vt 0.213333 -0.155
vt 0.222618 -0.164196
vt 0.253855 -0.164194
vt 0.250793 -0.150804
vt 0.263111 -0.155
vt 0.253855 -0.164194
vt 0.263111 -0.155
vt 0.293718 -0.16417
vt 0.32495 -0.164196
vt 0.321887 -0.150804
vt 0.334222 -0.155
vt 0.32495 -0.164196
vt 0.334222 -0.155
vt 0.355556 -0.155
vt 0.253855 -0.164194
vt 0.293718 -0.16417
vt 0.293336 -0.165159
vt 8.17461e-18 -0.155
vt 0.0218935 -0.164196
vt 0.0215111 -0.165185
vt 0.0409553 -0.165185
vt 0.0405728 -0.164196
vt 0.0804297 -0.164196
vt 0.0409553 -0.165185
vt 0.0804297 -0.164196
vt 0.0800472 -0.165185
vt 0.112049 -0.165185
vt 0.111667 -0.164196
vt 0.151524 -0.164196
vt 0.112049 -0.165185
vt 0.151524 -0.164196
vt 0.151141 -0.165185
vt 0.183144 -0.165185
vt 0.182761 -0.164196
vt 0.222618 -0.164196
vt 0.183144 -0.165185
vt 0.222618 -0.164196
vt 0.222236 -0.165185
vt 0.254238 -0.165184
vt 0.253855 -0.164194
vt 0.293336 -0.165159
vt 0.325332 -0.165185
vt 0.32495 -0.164196
vt 0.355556 -0.155
vt 0.254238 -0.165184
vt 0.293336 -0.165159
vt 0.292703 -0.165951
vt 8.17461e-18 -0.155
vt 0.0215111 -0.165185
vt 0.0208776 -0.165978
vt 0.0415888 -0.165978
vt 0.0409553 -0.165185
vt 0.0800472 -0.165185
vt 0.0415888 -0.165978
vt 0.0800472 -0.165185
vt 0.0794138 -0.165978
vt 0.112683 -0.165978
vt 0.112049 -0.165185
vt 0.151141 -0.165185
vt 0.112683 -0.165978
vt 0.151141 -0.165185
vt 0.150508 -0.165978
vt 0.183777 -0.165978
vt 0.183144 -0.165185
vt 0.222236 -0.165185
vt 0.183777 -0.165978
vt 0.222236 -0.165185
vt 0.221602 -0.165978
vt 0.254872 -0.165977
vt 0.254238 -0.165184
vt 0.292703 -0.165951
vt 0.325965 -0.165978
vt 0.325332 -0.165185
vt 0.355556 -0.155
vt 0.254872 -0.165977
vt 0.292703 -0.165951
vt 0.291886 -0.166463
vt 8.17461e-18 -0.155
vt 0.0208776 -0.165978
vt 0.0200603 -0.16649
vt 0.042406 -0.16649
vt 0.0415888 -0.165978
vt 0.0794138 -0.165978
vt 0.042406 -0.16649
vt 0.0794138 -0.165978
vt 0.0785965 -0.16649
vt 0.1135 -0.16649
vt 0.112683 -0.165978
vt 0.150508 -0.165978
vt 0.1135 -0.16649
vt 0.150508 -0.165978
vt 0.149691 -0.16649
vt 0.184594 -0.16649
vt 0.183777 -0.165978
vt 0.221602 -0.165978
vt 0.184594 -0.16649
vt 0.221602 -0.165978
vt 0.220785 -0.16649
vt 0.255689 -0.166489
vt 0.254872 -0.165977
vt 0.291886 -0.166463
vt 0.326783 -0.16649
vt 0.325965 -0.165978
vt 0.355556 -0.155
vt 0.255689 -0.166489
vt 0.291886 -0.166463
vt 0.290972 -0.16664
vt 0.256604 -0.166665
vt 0.255689 -0.166489
vt 0.290972 -0.16664
vt 7.565e-18 -0.166667
vt 8.17461e-18 -0.155
vt 0.0200603 -0.16649
vt 7.565e-18 -0.166667
vt 0.0200603 -0.16649
vt 0.019146 -0.166667
vt 0.0433203 -0.166667
vt 0.042406 -0.16649
vt 0.0785965 -0.16649
vt 0.0433203 -0.166667
vt 0.0785965 -0.16649
vt 0.0776822 -0.166667
vt 0.114415 -0.166667
vt 0.1135 -0.16649
vt 0.149691 -0.16649
vt 0.114415 -0.166667
vt 0.149691 -0.16649
vt 0.148776 -0.166667
vt 0.185509 -0.166667
vt 0.184594 -0.16649
vt 0.220785 -0.16649
vt 0.185509 -0.166667
vt 0.220785 -0.16649
vt 0.219871 -0.166667
vt 0.327697 -0.166667
vt 0.326783 -0.16649
vt 0.355556 -0.166667
vt 0.355556 -0.166667
vt 0.326783 -0.16649
vt 0.355556 -0.155
# индексы вершин текстуры с 528 по 890

f  7/528 6/529 159/530
f  7/531 159/532 155/533
f  23/534 22/535 143/536
f  23/537 143/538 139/539
f  39/540 38/541 127/542
f  39/543 127/544 123/545
f  55/546 54/547 111/548
f  55/549 111/550 107/551
f  71/552 70/553 95/554
f  71/555 95/556 91/557
f  159/558 6/559 403/560
f  400/561 7/562 155/563
f  143/564 22/565 383/566
f  380/567 23/568 139/569
f  127/570 38/571 363/572
f  360/573 39/574 123/575
f  111/576 54/577 343/578
f  340/579 55/580 107/581
f  95/582 70/583 323/584
f  320/585 71/586 91/587
f  159/588 403/589 404/590
f  399/591 400/592 155/593
f  143/594 383/595 384/596
f  379/597 380/598 139/599
f  127/600 363/601 364/602
f  359/603 360/604 123/605
f  111/606 343/607 344/608
f  339/609 340/610 107/611
f  95/612 323/613 324/614
f  319/615 320/616 91/617
f  159/618 404/619 405/620
f  398/621 399/622 155/623
f  143/624 384/625 385/626
f  378/627 379/628 139/629
f  127/630 364/631 365/632
f  358/633 359/634 123/635
f  111/636 344/637 345/638
f  338/639 339/640 107/641
f  95/642 324/643 325/644
f  318/645 319/646 91/647
f  159/648 405/649 3/650
f  10/651 398/652 155/653
f  143/654 385/655 19/656
f  26/657 378/658 139/659
f  127/660 365/661 35/662
f  42/663 358/664 123/665
f  111/666 345/667 51/668
f  58/669 338/670 107/671
f  95/672 325/673 67/674
f  74/675 318/676 91/677
f  163/678 159/679 3/680
f  10/681 155/682 151/683
f  147/684 143/685 19/686
f  26/687 139/688 135/689
f  131/690 127/691 35/692
f  42/693 123/694 119/695
f  115/696 111/697 51/698
f  58/699 107/700 103/701
f  99/702 95/703 67/704
f  74/705 91/706 87/707
f  99/708 67/709 66/710
f  103/711 99/712 66/713
f  163/714 3/715 2/716
f  11/717 10/718 151/719
f  11/720 151/721 147/722
f  147/723 19/724 18/725
f  11/726 147/727 18/728
f  27/729 26/730 135/731
f  27/732 135/733 131/734
f  131/735 35/736 34/737
f  27/738 131/739 34/740
f  43/741 42/742 119/743
f  43/744 119/745 115/746
f  115/747 51/748 50/749
f  43/750 115/751 50/752
f  59/753 58/754 103/755
f  59/756 103/757 66/758
f  75/759 74/760 87/761
f  75/762 87/763 83/764
f  59/765 66/766 328/767
f  163/768 2/769 408/770
f  395/771 11/772 18/773
f  395/774 18/775 388/776
f  375/777 27/778 34/779
f  375/780 34/781 368/782
f  355/783 43/784 50/785
f  355/786 50/787 348/788
f  335/789 59/790 328/791
f  315/792 75/793 83/794
f  335/795 328/796 329/797
f  163/798 408/799 409/800
f  394/801 395/802 388/803
f  394/804 388/805 389/806
f  374/807 375/808 368/809
f  374/810 368/811 369/812
f  354/813 355/814 348/815
f  354/816 348/817 349/818
f  334/819 335/820 329/821
f  314/822 315/823 83/824
f  334/825 329/826 330/827
f  163/828 409/829 410/830
f  393/831 394/832 389/833
f  393/834 389/835 390/836
f  373/837 374/838 369/839
f  373/840 369/841 370/842
f  353/843 354/844 349/845
f  353/846 349/847 350/848
f  333/849 334/850 330/851
f  313/852 314/853 83/854
f  333/855 330/856 63/857
f  62/858 333/859 63/860
f  289/861 163/862 410/863
f  289/864 410/865 288/866
f  14/867 393/868 390/869
f  14/870 390/871 15/872
f  30/873 373/874 370/875
f  30/876 370/877 31/878
f  46/879 353/880 350/881
f  46/882 350/883 47/884
f  78/885 313/886 79/887
f  79/888 313/889 83/890
vt 4.95921e-34 -0.155
vt 2.84444 -0.155
vt 2.84444 -0.166667
vt 5.33248e-34 -0.166667
# индексы вершин текстуры с 891 по 894

f  164/891 163/892 289/893 166/894
vt 5.33248e-34 -1.02054e-17
vt 2.84444 8.86524e-18
vt 2.84444 0.0224367
vt -1.17235e-18 0.0224367
# индексы вершин текстуры с 895 по 898

f  166/895 289/896 288/897 167/898

g Конструктив_-_Стены_Несущие Кирпич_-_Красный SMOOTH_PART

usemtl Кирпич_-_Красный

v 0 -14.1049 -99.8939
v 2000 -14.1049 -99.8939
v 2000 -14.6795 -99.5867
v 0 -14.6795 -99.5867
v 0 -14.6795 -99.5867
v 2000 -14.6795 -99.5867
v 2000 -15.125 -99.1111
v 0 -15.125 -99.1111
v 0 -15.125 -99.1111
v 2000 -15.125 -99.1111
v 2000 -15.3939 -98.5176
v 0 -15.3939 -98.5176
v 0 -17.5469 -90.4824
v 2000 -17.5469 -90.4824
v 2000 -17.8158 -89.8889
v 0 -17.8158 -89.8889
v 0 -17.8158 -89.8889
v 2000 -17.8158 -89.8889
v 2000 -18.2612 -89.4133
v 0 -18.2612 -89.4133
v 0 -18.2612 -89.4133
v 2000 -18.2612 -89.4133
v 2000 -18.8359 -89.1061
v 0 -18.8359 -89.1061
v 0 -18.8359 -89.1061
v 2000 -18.8359 -89.1061
v 2000 -19.4788 -89
v 0 -19.4788 -89
v 0 -24.4429 -89
v 2000 -24.4429 -89
v 2000 -25.0857 -89.1061
v 0 -25.0857 -89.1061
v 0 -25.0857 -89.1061
v 2000 -25.0857 -89.1061
v 2000 -25.6604 -89.4133
v 0 -25.6604 -89.4133
v 0 -25.6604 -89.4133
v 2000 -25.6604 -89.4133
v 2000 -26.1058 -89.8889
v 0 -26.1058 -89.8889
v 0 -26.1058 -89.8889
v 2000 -26.1058 -89.8889
v 2000 -26.3747 -90.4824
v 0 -26.3747 -90.4824
v 0 -28.5278 -98.5176
v 2000 -28.5278 -98.5176
v 2000 -28.7967 -99.1111
v 0 -28.7967 -99.1111
v 0 -28.7967 -99.1111
v 2000 -28.7967 -99.1111
v 2000 -29.2421 -99.5867
v 0 -29.2421 -99.5867
v 0 -29.2421 -99.5867
v 2000 -29.2421 -99.5867
v 2000 -29.8167 -99.8939
v 0 -29.8167 -99.8939
v 0 -29.8167 -99.8939
v 2000 -29.8167 -99.8939
v 2000 -30.4596 -100
v 0 -30.4596 -100
v 0 -54.6203 -100
v 2000 -54.6203 -100
v 2000 -55.2632 -99.8939
v 0 -55.2632 -99.8939
v 0 -55.2632 -99.8939
v 2000 -55.2632 -99.8939
v 2000 -55.8378 -99.5867
v 0 -55.8378 -99.5867
v 0 -55.8378 -99.5867
v 2000 -55.8378 -99.5867
v 2000 -56.2832 -99.1111
v 0 -56.2832 -99.1111
v 0 -56.2832 -99.1111
v 2000 -56.2832 -99.1111
v 2000 -56.5521 -98.5176
v 0 -56.5521 -98.5176
v 0 -58.7052 -90.4824
v 2000 -58.7052 -90.4824
v 2000 -58.9741 -89.8889
v 0 -58.9741 -89.8889
v 0 -58.9741 -89.8889
v 2000 -58.9741 -89.8889
v 2000 -59.4195 -89.4133
v 0 -59.4195 -89.4133
v 0 -59.4195 -89.4133
v 2000 -59.4195 -89.4133
v 2000 -59.9941 -89.1061
v 0 -59.9941 -89.1061
v 0 -59.9941 -89.1061
v 2000 -59.9941 -89.1061
v 2000 -60.637 -89
v 0 -60.637 -89
v 0 -74.431 -89
v 2000 -74.431 -89
v 2000 -75.0738 -89.1061
v 0 -75.0738 -89.1061
v 0 -75.0738 -89.1061
v 2000 -75.0738 -89.1061
v 2000 -75.6485 -89.4133
v 0 -75.6485 -89.4133
v 0 -75.6485 -89.4133
v 2000 -75.6485 -89.4133
v 2000 -76.0939 -89.8889
v 0 -76.0939 -89.8889
v 0 -76.0939 -89.8889
v 2000 -76.0939 -89.8889
v 2000 -76.3628 -90.4824
v 0 -76.3628 -90.4824
v 0 -78.5159 -98.5176
v 2000 -78.5159 -98.5176
v 2000 -78.7848 -99.1111
v 0 -78.7848 -99.1111
v 0 -78.7848 -99.1111
v 2000 -78.7848 -99.1111
v 2000 -79.2302 -99.5867
v 0 -79.2302 -99.5867
v 0 -79.2302 -99.5867
v 2000 -79.2302 -99.5867
v 2000 -79.8048 -99.8939
v 0 -79.8048 -99.8939
v 0 -79.8048 -99.8939
v 2000 -79.8048 -99.8939
v 2000 -80.4477 -100
v 0 -80.4477 -100
v 0 -104.608 -100
v 2000 -104.608 -100
v 2000 -105.251 -99.8939
v 0 -105.251 -99.8939
v 0 -105.251 -99.8939
v 2000 -105.251 -99.8939
v 2000 -105.826 -99.5867
v 0 -105.826 -99.5867
v 0 -105.826 -99.5867
v 2000 -105.826 -99.5867
v 2000 -106.271 -99.1111
v 0 -106.271 -99.1111
v 0 -106.271 -99.1111
v 2000 -106.271 -99.1111
v 2000 -106.54 -98.5176
v 0 -106.54 -98.5176
v 0 -108.693 -90.4824
v 2000 -108.693 -90.4824
v 2000 -108.962 -89.8889
v 0 -108.962 -89.8889
v 0 -108.962 -89.8889
v 2000 -108.962 -89.8889
v 2000 -109.408 -89.4133
v 0 -109.408 -89.4133
v 0 -109.408 -89.4133
v 2000 -109.408 -89.4133
v 2000 -109.982 -89.1061
v 0 -109.982 -89.1061
v 0 -109.982 -89.1061
v 2000 -109.982 -89.1061
v 2000 -110.625 -89
v 0 -110.625 -89
v 0 -124.419 -89
v 2000 -124.419 -89
v 2000 -125.062 -89.1061
v 0 -125.062 -89.1061
v 0 -125.062 -89.1061
v 2000 -125.062 -89.1061
v 2000 -125.637 -89.4133
v 0 -125.637 -89.4133
v 0 -125.637 -89.4133
v 2000 -125.637 -89.4133
v 2000 -126.082 -89.8889
v 0 -126.082 -89.8889
v 0 -126.082 -89.8889
v 2000 -126.082 -89.8889
v 2000 -126.351 -90.4824
v 0 -126.351 -90.4824
v 0 -128.504 -98.5176
v 2000 -128.504 -98.5176
v 2000 -128.773 -99.1111
v 0 -128.773 -99.1111
v 0 -128.773 -99.1111
v 2000 -128.773 -99.1111
v 2000 -129.218 -99.5867
v 0 -129.218 -99.5867
v 0 -129.218 -99.5867
v 2000 -129.218 -99.5867
v 2000 -129.793 -99.8939
v 0 -129.793 -99.8939
v 0 -129.793 -99.8939
v 2000 -129.793 -99.8939
v 2000 -130.436 -100
v 0 -130.436 -100
v 0 -154.596 -100
v 2000 -154.596 -100
v 2000 -155.239 -99.8939
v 0 -155.239 -99.8939
v 0 -155.239 -99.8939
v 2000 -155.239 -99.8939
v 2000 -155.814 -99.5867
v 0 -155.814 -99.5867
v 0 -155.814 -99.5867
v 2000 -155.814 -99.5867
v 2000 -156.259 -99.1111
v 0 -156.259 -99.1111
v 0 -156.259 -99.1111
v 2000 -156.259 -99.1111
v 2000 -156.528 -98.5176
v 0 -156.528 -98.5176
v 0 -158.681 -90.4824
v 2000 -158.681 -90.4824
v 2000 -158.95 -89.8889
v 0 -158.95 -89.8889
v 0 -158.95 -89.8889
v 2000 -158.95 -89.8889
v 2000 -159.396 -89.4133
v 0 -159.396 -89.4133
v 0 -159.396 -89.4133
v 2000 -159.396 -89.4133
v 2000 -159.97 -89.1061
v 0 -159.97 -89.1061
v 0 -159.97 -89.1061
v 2000 -159.97 -89.1061
v 2000 -160.613 -89
v 0 -160.613 -89
v 0 -174.407 -89
v 2000 -174.407 -89
v 2000 -175.05 -89.1061
v 0 -175.05 -89.1061
v 0 -175.05 -89.1061
v 2000 -175.05 -89.1061
v 2000 -175.625 -89.4133
v 0 -175.625 -89.4133
v 0 -175.625 -89.4133
v 2000 -175.625 -89.4133
v 2000 -176.07 -89.8889
v 0 -176.07 -89.8889
v 0 -176.07 -89.8889
v 2000 -176.07 -89.8889
v 2000 -176.339 -90.4824
v 0 -176.339 -90.4824
v 0 -178.492 -98.5167
v 2000 -178.492 -98.5167
v 2000 -178.761 -99.1105
v 0 -178.761 -99.1105
v 0 -178.761 -99.1105
v 2000 -178.761 -99.1105
v 2000 -179.207 -99.5861
v 0 -179.207 -99.5861
v 0 -179.207 -99.5861
v 2000 -179.207 -99.5861
v 2000 -179.782 -99.8932
v 0 -179.782 -99.8932
v 0 -179.782 -99.8932
v 2000 -179.782 -99.8932
v 2000 -180.425 -99.9991
v 0 -180.425 -99.9991
v 0 -204.59 -99.9843
v 2000 -204.59 -99.9843
v 2000 -205.233 -99.8778
v 0 -205.233 -99.8778
v 0 -205.233 -99.8778
v 2000 -205.233 -99.8778
v 2000 -205.807 -99.5706
v 0 -205.807 -99.5706
v 0 -205.807 -99.5706
v 2000 -205.807 -99.5706
v 2000 -206.252 -99.0951
v 0 -206.252 -99.0951
v 0 -206.252 -99.0951
v 2000 -206.252 -99.0951
v 2000 -206.521 -98.5019
v 0 -206.521 -98.5019
v 0 -208.669 -90.4824
v 2000 -208.669 -90.4824
v 2000 -208.938 -89.8889
v 0 -208.938 -89.8889
v 0 -208.938 -89.8889
v 2000 -208.938 -89.8889
v 2000 -209.384 -89.4133
v 0 -209.384 -89.4133
v 0 -209.384 -89.4133
v 2000 -209.384 -89.4133
v 2000 -209.958 -89.1061
v 0 -209.958 -89.1061
v 0 -209.958 -89.1061
v 2000 -209.958 -89.1061
v 2000 -210.601 -89
v 0 -210.601 -89
v 0 -224.395 -89
v 2000 -224.395 -89
v 2000 -225.038 -89.1061
v 0 -225.038 -89.1061
v 0 -225.038 -89.1061
v 2000 -225.038 -89.1061
v 2000 -225.613 -89.4133
v 0 -225.613 -89.4133
v 0 -225.613 -89.4133
v 2000 -225.613 -89.4133
v 2000 -226.058 -89.8889
v 0 -226.058 -89.8889
v 0 -226.058 -89.8889
v 2000 -226.058 -89.8889
v 2000 -226.327 -90.4824
v 0 -226.327 -90.4824
v 0 -228.48 -98.5176
v 2000 -228.48 -98.5176
v 2000 -228.749 -99.1111
v 0 -228.749 -99.1111
v 0 -228.749 -99.1111
v 2000 -228.749 -99.1111
v 2000 -229.194 -99.5867
v 0 -229.194 -99.5867
v 0 -229.194 -99.5867
v 2000 -229.194 -99.5867
v 2000 -229.769 -99.8939
v 0 -229.769 -99.8939
v 0 -229.769 -99.8939
v 2000 -229.769 -99.8939
v 2000 -230.412 -100
v 0 -230.412 -100
v 0 -13.462 -100
v 2000 -13.462 -100
v 2000 -14.1049 -99.8939
v 0 -14.1049 -99.8939
# индексы вершин с 419 по 738

vn 1.96825e-17 -0.321439 -0.94693
vn 1.96825e-17 -0.321439 -0.94693
vn 3.72759e-17 -0.608761 -0.793353
vn 3.72759e-17 -0.608761 -0.793353
vn 3.72759e-17 -0.608761 -0.793353
vn 3.72759e-17 -0.608761 -0.793353
vn 5.09128e-17 -0.83147 -0.55557
vn 5.09128e-17 -0.83147 -0.55557
vn 5.09128e-17 -0.83147 -0.55557
vn 5.09128e-17 -0.83147 -0.55557
vn 5.57743e-17 -0.910864 -0.412707
vn 5.57743e-17 -0.910864 -0.412707
vn 5.57743e-17 -0.910864 -0.412707
vn 5.57743e-17 -0.910864 -0.412707
vn 5.09128e-17 -0.83147 -0.55557
vn 5.09128e-17 -0.83147 -0.55557
vn 5.09128e-17 -0.83147 -0.55557
vn 5.09128e-17 -0.83147 -0.55557
vn 3.72759e-17 -0.608761 -0.793353
vn 3.72759e-17 -0.608761 -0.793353
vn 3.72759e-17 -0.608761 -0.793353
vn 3.72759e-17 -0.608761 -0.793353
vn 1.96825e-17 -0.321439 -0.94693
vn 1.96825e-17 -0.321439 -0.94693
vn 1.96825e-17 -0.321439 -0.94693
vn 1.96825e-17 -0.321439 -0.94693
vn 9.97447e-18 -0.162895 -0.986643
vn 9.97447e-18 -0.162895 -0.986643
vn -9.97447e-18 0.162895 -0.986643
vn -9.97447e-18 0.162895 -0.986643
vn -1.96825e-17 0.321439 -0.94693
vn -1.96825e-17 0.321439 -0.94693
vn -1.96825e-17 0.321439 -0.94693
vn -1.96825e-17 0.321439 -0.94693
vn -3.72759e-17 0.608761 -0.793353
vn -3.72759e-17 0.608761 -0.793353
vn -3.72759e-17 0.608761 -0.793353
vn -3.72759e-17 0.608761 -0.793353
vn -5.09128e-17 0.83147 -0.55557
vn -5.09128e-17 0.83147 -0.55557
vn -5.09128e-17 0.83147 -0.55557
vn -5.09128e-17 0.83147 -0.55557
vn -5.57743e-17 0.910864 -0.412707
vn -5.57743e-17 0.910864 -0.412707
vn -5.57743e-17 0.910864 -0.412707
vn -5.57743e-17 0.910864 -0.412707
vn -5.09128e-17 0.83147 -0.55557
vn -5.09128e-17 0.83147 -0.55557
vn -5.09128e-17 0.83147 -0.55557
vn -5.09128e-17 0.83147 -0.55557
vn -3.72759e-17 0.608761 -0.793353
vn -3.72759e-17 0.608761 -0.793353
vn -3.72759e-17 0.608761 -0.793353
vn -3.72759e-17 0.608761 -0.793353
vn -1.96825e-17 0.321439 -0.94693
vn -1.96825e-17 0.321439 -0.94693
vn -1.96825e-17 0.321439 -0.94693
vn -1.96825e-17 0.321439 -0.94693
vn -9.97447e-18 0.162895 -0.986643
vn -9.97447e-18 0.162895 -0.986643
vn 9.97447e-18 -0.162895 -0.986643
vn 9.97447e-18 -0.162895 -0.986643
vn 1.96825e-17 -0.321439 -0.94693
vn 1.96825e-17 -0.321439 -0.94693
vn 1.96825e-17 -0.321439 -0.94693
vn 1.96825e-17 -0.321439 -0.94693
vn 3.72759e-17 -0.608761 -0.793353
vn 3.72759e-17 -0.608761 -0.793353
vn 3.72759e-17 -0.608761 -0.793353
vn 3.72759e-17 -0.608761 -0.793353
vn 5.09128e-17 -0.83147 -0.55557
vn 5.09128e-17 -0.83147 -0.55557
vn 5.09128e-17 -0.83147 -0.55557
vn 5.09128e-17 -0.83147 -0.55557
vn 5.57743e-17 -0.910864 -0.412707
vn 5.57743e-17 -0.910864 -0.412707
vn 5.57743e-17 -0.910864 -0.412707
vn 5.57743e-17 -0.910864 -0.412707
vn 5.09128e-17 -0.83147 -0.55557
vn 5.09128e-17 -0.83147 -0.55557
vn 5.09128e-17 -0.83147 -0.55557
vn 5.09128e-17 -0.83147 -0.55557
vn 3.72759e-17 -0.608761 -0.793353
vn 3.72759e-17 -0.608761 -0.793353
vn 3.72759e-17 -0.608761 -0.793353
vn 3.72759e-17 -0.608761 -0.793353
vn 1.96825e-17 -0.321439 -0.94693
vn 1.96825e-17 -0.321439 -0.94693
vn 1.96825e-17 -0.321439 -0.94693
vn 1.96825e-17 -0.321439 -0.94693
vn 9.97447e-18 -0.162895 -0.986643
vn 9.97447e-18 -0.162895 -0.986643
vn -9.97447e-18 0.162895 -0.986643
vn -9.97447e-18 0.162895 -0.986643
vn -1.96825e-17 0.321439 -0.94693
vn -1.96825e-17 0.321439 -0.94693
vn -1.96825e-17 0.321439 -0.94693
vn -1.96825e-17 0.321439 -0.94693
vn -3.72759e-17 0.608761 -0.793353
vn -3.72759e-17 0.608761 -0.793353
vn -3.72759e-17 0.608761 -0.793353
vn -3.72759e-17 0.608761 -0.793353
vn -5.09128e-17 0.83147 -0.55557
vn -5.09128e-17 0.83147 -0.55557
vn -5.09128e-17 0.83147 -0.55557
vn -5.09128e-17 0.83147 -0.55557
vn -5.57743e-17 0.910864 -0.412707
vn -5.57743e-17 0.910864 -0.412707
vn -5.57743e-17 0.910864 -0.412707
vn -5.57743e-17 0.910864 -0.412707
vn -5.09128e-17 0.83147 -0.55557
vn -5.09128e-17 0.83147 -0.55557
vn -5.09128e-17 0.83147 -0.55557
vn -5.09128e-17 0.83147 -0.55557
vn -3.72759e-17 0.608761 -0.793353
vn -3.72759e-17 0.608761 -0.793353
vn -3.72759e-17 0.608761 -0.793353
vn -3.72759e-17 0.608761 -0.793353
vn -1.96825e-17 0.321439 -0.94693
vn -1.96825e-17 0.321439 -0.94693
vn -1.96825e-17 0.321439 -0.94693
vn -1.96825e-17 0.321439 -0.94693
vn -9.97447e-18 0.162895 -0.986643
vn -9.97447e-18 0.162895 -0.986643
vn 9.97447e-18 -0.162895 -0.986643
vn 9.97447e-18 -0.162895 -0.986643
vn 1.96825e-17 -0.321439 -0.94693
vn 1.96825e-17 -0.321439 -0.94693
vn 1.96825e-17 -0.321439 -0.94693
vn 1.96825e-17 -0.321439 -0.94693
vn 3.72759e-17 -0.608761 -0.793353
vn 3.72759e-17 -0.608761 -0.793353
vn 3.72759e-17 -0.608761 -0.793353
vn 3.72759e-17 -0.608761 -0.793353
vn 5.09128e-17 -0.83147 -0.55557
vn 5.09128e-17 -0.83147 -0.55557
vn 5.09128e-17 -0.83147 -0.55557
vn 5.09128e-17 -0.83147 -0.55557
vn 5.57743e-17 -0.910864 -0.412707
vn 5.57743e-17 -0.910864 -0.412707
vn 5.57743e-17 -0.910864 -0.412707
vn 5.57743e-17 -0.910864 -0.412707
vn 5.09128e-17 -0.83147 -0.55557
vn 5.09128e-17 -0.83147 -0.55557
vn 5.09128e-17 -0.83147 -0.55557
vn 5.09128e-17 -0.83147 -0.55557
vn 3.72759e-17 -0.608761 -0.793353
vn 3.72759e-17 -0.608761 -0.793353
vn 3.72759e-17 -0.608761 -0.793353
vn 3.72759e-17 -0.608761 -0.793353
vn 1.96825e-17 -0.321439 -0.94693
vn 1.96825e-17 -0.321439 -0.94693
vn 1.96825e-17 -0.321439 -0.94693
vn 1.96825e-17 -0.321439 -0.94693
vn 9.97447e-18 -0.162895 -0.986643
vn 9.97447e-18 -0.162895 -0.986643
vn -9.97447e-18 0.162895 -0.986643
vn -9.97447e-18 0.162895 -0.986643
vn -1.96825e-17 0.321439 -0.94693
vn -1.96825e-17 0.321439 -0.94693
vn -1.96825e-17 0.321439 -0.94693
vn -1.96825e-17 0.321439 -0.94693
vn -3.72759e-17 0.608761 -0.793353
vn -3.72759e-17 0.608761 -0.793353
vn -3.72759e-17 0.608761 -0.793353
vn -3.72759e-17 0.608761 -0.793353
vn -5.09128e-17 0.83147 -0.55557
vn -5.09128e-17 0.83147 -0.55557
vn -5.09128e-17 0.83147 -0.55557
vn -5.09128e-17 0.83147 -0.55557
vn -5.57743e-17 0.910864 -0.412707
vn -5.57743e-17 0.910864 -0.412707
vn -5.57743e-17 0.910864 -0.412707
vn -5.57743e-17 0.910864 -0.412707
vn -5.09128e-17 0.83147 -0.55557
vn -5.09128e-17 0.83147 -0.55557
vn -5.09128e-17 0.83147 -0.55557
vn -5.09128e-17 0.83147 -0.55557
vn -3.72759e-17 0.608761 -0.793353
vn -3.72759e-17 0.608761 -0.793353
vn -3.72759e-17 0.608761 -0.793353
vn -3.72759e-17 0.608761 -0.793353
vn -1.96825e-17 0.321439 -0.94693
vn -1.96825e-17 0.321439 -0.94693
vn -1.96825e-17 0.321439 -0.94693
vn -1.96825e-17 0.321439 -0.94693
vn -9.97447e-18 0.162895 -0.986643
vn -9.97447e-18 0.162895 -0.986643
vn 9.97447e-18 -0.162895 -0.986643
vn 9.97447e-18 -0.162895 -0.986643
vn 1.96825e-17 -0.321439 -0.94693
vn 1.96825e-17 -0.321439 -0.94693
vn 1.96825e-17 -0.321439 -0.94693
vn 1.96825e-17 -0.321439 -0.94693
vn 3.72759e-17 -0.608761 -0.793353
vn 3.72759e-17 -0.608761 -0.793353
vn 3.72759e-17 -0.608761 -0.793353
vn 3.72759e-17 -0.608761 -0.793353
vn 5.09128e-17 -0.83147 -0.55557
vn 5.09128e-17 -0.83147 -0.55557
vn 5.09128e-17 -0.83147 -0.55557
vn 5.09128e-17 -0.83147 -0.55557
vn 5.57743e-17 -0.910864 -0.412707
vn 5.57743e-17 -0.910864 -0.412707
vn 5.57743e-17 -0.910864 -0.412707
vn 5.57743e-17 -0.910864 -0.412707
vn 5.09128e-17 -0.83147 -0.55557
vn 5.09128e-17 -0.83147 -0.55557
vn 5.09128e-17 -0.83147 -0.55557
vn 5.09128e-17 -0.83147 -0.55557
vn 3.72759e-17 -0.608761 -0.793353
vn 3.72759e-17 -0.608761 -0.793353
vn 3.72759e-17 -0.608761 -0.793353
vn 3.72759e-17 -0.608761 -0.793353
vn 1.96825e-17 -0.321439 -0.94693
vn 1.96825e-17 -0.321439 -0.94693
vn 1.96825e-17 -0.321439 -0.94693
vn 1.96825e-17 -0.321439 -0.94693
vn 9.97447e-18 -0.162895 -0.986643
vn 9.97447e-18 -0.162895 -0.986643
vn -9.97447e-18 0.162895 -0.986643
vn -9.97447e-18 0.162895 -0.986643
vn -1.96825e-17 0.321439 -0.94693
vn -1.96825e-17 0.321439 -0.94693
vn -1.96825e-17 0.321439 -0.94693
vn -1.96825e-17 0.321439 -0.94693
vn -3.72759e-17 0.608761 -0.793353
vn -3.72759e-17 0.608761 -0.793353
vn -3.72759e-17 0.608761 -0.793353
vn -3.72759e-17 0.608761 -0.793353
vn -5.09128e-17 0.83147 -0.55557
vn -5.09128e-17 0.83147 -0.55557
vn -5.09128e-17 0.83147 -0.55557
vn -5.09128e-17 0.83147 -0.55557
vn -5.57743e-17 0.910864 -0.412707
vn -5.57743e-17 0.910864 -0.412707
vn -5.57724e-17 0.910832 -0.412777
vn -5.57724e-17 0.910832 -0.412777
vn -5.09076e-17 0.831385 -0.555698
vn -5.09076e-17 0.831385 -0.555698
vn -5.09076e-17 0.831385 -0.555698
vn -5.09076e-17 0.831385 -0.555698
vn -3.7261e-17 0.608518 -0.79354
vn -3.7261e-17 0.608518 -0.79354
vn -3.7261e-17 0.608518 -0.79354
vn -3.7261e-17 0.608518 -0.79354
vn -1.96559e-17 0.321005 -0.947078
vn -1.96559e-17 0.321005 -0.947078
vn -1.96559e-17 0.321005 -0.947078
vn -1.96559e-17 0.321005 -0.947078
vn -9.9421e-18 0.162367 -0.98673
vn -9.9421e-18 0.162367 -0.98673
vn 1.00068e-17 -0.163424 -0.986556
vn 1.00068e-17 -0.163424 -0.986556
vn 1.97091e-17 -0.321874 -0.946782
vn 1.97091e-17 -0.321874 -0.946782
vn 1.97091e-17 -0.321874 -0.946782
vn 1.97091e-17 -0.321874 -0.946782
vn 3.72908e-17 -0.609004 -0.793167
vn 3.72908e-17 -0.609004 -0.793167
vn 3.72908e-17 -0.609004 -0.793167
vn 3.72908e-17 -0.609004 -0.793167
vn 5.0918e-17 -0.831555 -0.555443
vn 5.0918e-17 -0.831555 -0.555443
vn 5.0918e-17 -0.831555 -0.555443
vn 5.0918e-17 -0.831555 -0.555443
vn 5.57763e-17 -0.910895 -0.412637
vn 5.57763e-17 -0.910895 -0.412637
vn 5.57743e-17 -0.910864 -0.412707
vn 5.57743e-17 -0.910864 -0.412707
vn 5.09128e-17 -0.83147 -0.55557
vn 5.09128e-17 -0.83147 -0.55557
vn 5.09128e-17 -0.83147 -0.55557
vn 5.09128e-17 -0.83147 -0.55557
vn 3.72759e-17 -0.608761 -0.793353
vn 3.72759e-17 -0.608761 -0.793353
vn 3.72759e-17 -0.608761 -0.793353
vn 3.72759e-17 -0.608761 -0.793353
vn 1.96825e-17 -0.321439 -0.94693
vn 1.96825e-17 -0.321439 -0.94693
vn 1.96825e-17 -0.321439 -0.94693
vn 1.96825e-17 -0.321439 -0.94693
vn 9.97447e-18 -0.162895 -0.986643
vn 9.97447e-18 -0.162895 -0.986643
vn -9.97447e-18 0.162895 -0.986643
vn -9.97447e-18 0.162895 -0.986643
vn -1.96825e-17 0.321439 -0.94693
vn -1.96825e-17 0.321439 -0.94693
vn -1.96825e-17 0.321439 -0.94693
vn -1.96825e-17 0.321439 -0.94693
vn -3.72759e-17 0.608761 -0.793353
vn -3.72759e-17 0.608761 -0.793353
vn -3.72759e-17 0.608761 -0.793353
vn -3.72759e-17 0.608761 -0.793353
vn -5.09128e-17 0.83147 -0.55557
vn -5.09128e-17 0.83147 -0.55557
vn -5.09128e-17 0.83147 -0.55557
vn -5.09128e-17 0.83147 -0.55557
vn -5.57743e-17 0.910864 -0.412707
vn -5.57743e-17 0.910864 -0.412707
vn -5.57743e-17 0.910864 -0.412707
vn -5.57743e-17 0.910864 -0.412707
vn -5.09128e-17 0.83147 -0.55557
vn -5.09128e-17 0.83147 -0.55557
vn -5.09128e-17 0.83147 -0.55557
vn -5.09128e-17 0.83147 -0.55557
vn -3.72759e-17 0.608761 -0.793353
vn -3.72759e-17 0.608761 -0.793353
vn -3.72759e-17 0.608761 -0.793353
vn -3.72759e-17 0.608761 -0.793353
vn -1.96825e-17 0.321439 -0.94693
vn -1.96825e-17 0.321439 -0.94693
vn -1.96825e-17 0.321439 -0.94693
vn -1.96825e-17 0.321439 -0.94693
vn -9.97447e-18 0.162895 -0.986643
vn -9.97447e-18 0.162895 -0.986643
vn 9.97447e-18 -0.162895 -0.986643
vn 9.97447e-18 -0.162895 -0.986643
vn 1.96825e-17 -0.321439 -0.94693
vn 1.96825e-17 -0.321439 -0.94693
# индексы нормалей вершин с 1 по 320

s 1
vt -1.22834e-18 0.0235082
vt 2.84444 0.0235082
vt 2.84444 0.0244659
vt -1.27838e-18 0.0244659
# индексы вершин текстуры с 899 по 902

f  419/899/1 420/900/2 421/901/3 422/902/4
vt -1.27838e-18 -0.165978
vt 2.84444 -0.165978
vt 2.84444 -0.165185
vt -1.31717e-18 -0.165185
# индексы вершин текстуры с 903 по 906

f  422/903/4 421/904/3 425/905/7 426/906/8
vt -1.31717e-18 -0.165185
vt 2.84444 -0.165185
vt 2.84444 -0.164196
vt -1.34059e-18 -0.164196
# индексы вершин текстуры с 907 по 910

f  426/907/8 425/908/7 429/909/11 430/910/12
vt -1.52809e-18 -0.150804
vt 2.84444 -0.150804
vt 2.84444 -0.149815
vt -1.55151e-18 -0.149815
# индексы вершин текстуры с 911 по 914

f  431/911/13 432/912/14 433/913/15 434/914/16
vt -1.55151e-18 -0.149815
vt 2.84444 -0.149815
vt 2.84444 -0.149022
vt -1.5903e-18 -0.149022
# индексы вершин текстуры с 915 по 918

f  434/915/16 433/916/15 437/917/19 438/918/20
vt -1.5903e-18 0.0304354
vt 2.84444 0.0304354
vt 2.84444 0.0313931
vt -1.64034e-18 0.0313931
# индексы вершин текстуры с 919 по 922

f  438/919/20 437/920/19 441/921/23 442/922/24
vt -1.64034e-18 0.0313931
vt 2.84444 0.0313931
vt 2.84444 0.0324646
vt -1.69633e-18 0.0324646
# индексы вершин текстуры с 923 по 926

f  442/923/24 441/924/23 445/925/27 446/926/28
vt -2.12863e-18 0.0407381
vt 2.84444 0.0407381
vt 2.84444 0.0418096
vt -2.18462e-18 0.0418096
# индексы вершин текстуры с 927 по 930

f  447/927/29 448/928/30 449/929/31 450/930/32
vt -2.18462e-18 0.0418096
vt 2.84444 0.0418096
vt 2.84444 0.0427673
vt -2.23466e-18 0.0427673
# индексы вершин текстуры с 931 по 934

f  450/931/32 449/932/31 453/933/35 454/934/36
vt -2.23466e-18 -0.149022
vt 2.84444 -0.149022
vt 2.84444 -0.149815
vt -2.27345e-18 -0.149815
# индексы вершин текстуры с 935 по 938

f  454/935/36 453/936/35 457/937/39 458/938/40
vt -2.27345e-18 -0.149815
vt 2.84444 -0.149815
vt 2.84444 -0.150804
vt -2.29687e-18 -0.150804
# индексы вершин текстуры с 939 по 942

f  458/939/40 457/940/39 461/941/43 462/942/44
vt -2.48437e-18 -0.164196
vt 2.84444 -0.164196
vt 2.84444 -0.165185
vt -2.50779e-18 -0.165185
# индексы вершин текстуры с 943 по 946

f  463/943/45 464/944/46 465/945/47 466/946/48
vt -2.50779e-18 -0.165185
vt 2.84444 -0.165185
vt 2.84444 -0.165978
vt -2.54658e-18 -0.165978
# индексы вершин текстуры с 947 по 950

f  466/947/48 465/948/47 469/949/51 470/950/52
vt -2.54658e-18 0.0487368
vt 2.84444 0.0487368
vt 2.84444 0.0496946
vt -2.59662e-18 0.0496946
# индексы вершин текстуры с 951 по 954

f  470/951/52 469/952/51 473/953/55 474/954/56
vt -2.59662e-18 0.0496946
vt 2.84444 0.0496946
vt 2.84444 0.050766
vt -2.65261e-18 0.050766
# индексы вершин текстуры с 955 по 958

f  474/955/56 473/956/55 477/957/59 478/958/60
vt -4.75666e-18 0.0910338
vt 2.84444 0.0910338
vt 2.84444 0.0921053
vt -4.81265e-18 0.0921053
# индексы вершин текстуры с 959 по 962

f  479/959/61 480/960/62 481/961/63 482/962/64
vt -4.81265e-18 0.0921053
vt 2.84444 0.0921053
vt 2.84444 0.093063
vt -4.86269e-18 0.093063
# индексы вершин текстуры с 963 по 966

f  482/963/64 481/964/63 485/965/67 486/966/68
vt -4.86269e-18 -0.165978
vt 2.84444 -0.165978
vt 2.84444 -0.165185
vt -4.90148e-18 -0.165185
# индексы вершин текстуры с 967 по 970

f  486/967/68 485/968/67 489/969/71 490/970/72
vt -4.90148e-18 -0.165185
vt 2.84444 -0.165185
vt 2.84444 -0.164196
vt -4.9249e-18 -0.164196
# индексы вершин текстуры с 971 по 974

f  490/971/72 489/972/71 493/973/75 494/974/76
vt -5.1124e-18 -0.150804
vt 2.84444 -0.150804
vt 2.84444 -0.149815
vt -5.13582e-18 -0.149815
# индексы вершин текстуры с 975 по 978

f  495/975/77 496/976/78 497/977/79 498/978/80
vt -5.13582e-18 -0.149815
vt 2.84444 -0.149815
vt 2.84444 -0.149022
vt -5.17461e-18 -0.149022
# индексы вершин текстуры с 979 по 982

f  498/979/80 497/980/79 501/981/83 502/982/84
vt -5.17461e-18 0.0990325
vt 2.84444 0.0990325
vt 2.84444 0.0999902
vt -5.22465e-18 0.0999902
# индексы вершин текстуры с 983 по 986

f  502/983/84 501/984/83 505/985/87 506/986/88
vt -5.22465e-18 0.0999902
vt 2.84444 0.0999902
vt 2.84444 0.101062
vt -5.28064e-18 0.101062
# индексы вершин текстуры с 987 по 990

f  506/987/88 505/988/87 509/989/91 510/990/92
vt -6.48189e-18 0.124052
vt 2.84444 0.124052
vt 2.84444 0.125123
vt -6.53788e-18 0.125123
# индексы вершин текстуры с 991 по 994

f  511/991/93 512/992/94 513/993/95 514/994/96
vt -6.53788e-18 0.125123
vt 2.84444 0.125123
vt 2.84444 0.126081
vt -6.58792e-18 0.126081
# индексы вершин текстуры с 995 по 998

f  514/995/96 513/996/95 517/997/99 518/998/100
vt -6.58792e-18 -0.149022
vt 2.84444 -0.149022
vt 2.84444 -0.149815
vt -6.62671e-18 -0.149815
# индексы вершин текстуры с 999 по 1002

f  518/999/100 517/1000/99 521/1001/103 522/1002/104
vt -6.62671e-18 -0.149815
vt 2.84444 -0.149815
vt 2.84444 -0.150804
vt -6.65013e-18 -0.150804
# индексы вершин текстуры с 1003 по 1006

f  522/1003/104 521/1004/103 525/1005/107 526/1006/108
vt -6.83763e-18 -0.164196
vt 2.84444 -0.164196
vt 2.84444 -0.165185
vt -6.86105e-18 -0.165185
# индексы вершин текстуры с 1007 по 1010

f  527/1007/109 528/1008/110 529/1009/111 530/1010/112
vt -6.86105e-18 -0.165185
vt 2.84444 -0.165185
vt 2.84444 -0.165978
vt -6.89984e-18 -0.165978
# индексы вершин текстуры с 1011 по 1014

f  530/1011/112 529/1012/111 533/1013/115 534/1014/116
vt -6.89984e-18 0.13205
vt 2.84444 0.13205
vt 2.84444 0.133008
vt -6.94988e-18 0.133008
# индексы вершин текстуры с 1015 по 1018

f  534/1015/116 533/1016/115 537/1017/119 538/1018/120
vt -6.94988e-18 0.133008
vt 2.84444 0.133008
vt 2.84444 0.13408
vt -7.00587e-18 0.13408
# индексы вершин текстуры с 1019 по 1022

f  538/1019/120 537/1020/119 541/1021/123 542/1022/124
vt -9.10992e-18 0.174347
vt 2.84444 0.174347
vt 2.84444 0.175419
vt -9.16591e-18 0.175419
# индексы вершин текстуры с 1023 по 1026

f  543/1023/125 544/1024/126 545/1025/127 546/1026/128
vt -9.16591e-18 0.175419
vt 2.84444 0.175419
vt 2.84444 0.176376
vt -9.21595e-18 0.176376
# индексы вершин текстуры с 1027 по 1030

f  546/1027/128 545/1028/127 549/1029/131 550/1030/132
vt -9.21595e-18 -0.165978
vt 2.84444 -0.165978
vt 2.84444 -0.165185
vt -9.25474e-18 -0.165185
# индексы вершин текстуры с 1031 по 1034

f  550/1031/132 549/1032/131 553/1033/135 554/1034/136
vt -9.25474e-18 -0.165185
vt 2.84444 -0.165185
vt 2.84444 -0.164196
vt -9.27816e-18 -0.164196
# индексы вершин текстуры с 1035 по 1038

f  554/1035/136 553/1036/135 557/1037/139 558/1038/140
vt -9.46566e-18 -0.150804
vt 2.84444 -0.150804
vt 2.84444 -0.149815
vt -9.48908e-18 -0.149815
# индексы вершин текстуры с 1039 по 1042

f  559/1039/141 560/1040/142 561/1041/143 562/1042/144
vt -9.48908e-18 -0.149815
vt 2.84444 -0.149815
vt 2.84444 -0.149022
vt -9.52787e-18 -0.149022
# индексы вершин текстуры с 1043 по 1046

f  562/1043/144 561/1044/143 565/1045/147 566/1046/148
vt -9.52787e-18 0.182346
vt 2.84444 0.182346
vt 2.84444 0.183304
vt -9.57791e-18 0.183304
# индексы вершин текстуры с 1047 по 1050

f  566/1047/148 565/1048/147 569/1049/151 570/1050/152
vt -9.57791e-18 0.183304
vt 2.84444 0.183304
vt 2.84444 0.184375
vt -9.6339e-18 0.184375
# индексы вершин текстуры с 1051 по 1054

f  570/1051/152 569/1052/151 573/1053/155 574/1054/156
vt -1.08352e-17 0.207365
vt 2.84444 0.207365
vt 2.84444 0.208437
vt -1.08911e-17 0.208437
# индексы вершин текстуры с 1055 по 1058

f  575/1055/157 576/1056/158 577/1057/159 578/1058/160
vt -1.08911e-17 0.208437
vt 2.84444 0.208437
vt 2.84444 0.209394
vt -1.09412e-17 0.209394
# индексы вершин текстуры с 1059 по 1062

f  578/1059/160 577/1060/159 581/1061/163 582/1062/164
vt -1.09412e-17 -0.149022
vt 2.84444 -0.149022
vt 2.84444 -0.149815
vt -1.098e-17 -0.149815
# индексы вершин текстуры с 1063 по 1066

f  582/1063/164 581/1064/163 585/1065/167 586/1066/168
vt -1.098e-17 -0.149815
vt 2.84444 -0.149815
vt 2.84444 -0.150804
vt -1.10034e-17 -0.150804
# индексы вершин текстуры с 1067 по 1070

f  586/1067/168 585/1068/167 589/1069/171 590/1070/172
vt -1.11909e-17 -0.164196
vt 2.84444 -0.164196
vt 2.84444 -0.165185
vt -1.12143e-17 -0.165185
# индексы вершин текстуры с 1071 по 1074

f  591/1071/173 592/1072/174 593/1073/175 594/1074/176
vt -1.12143e-17 -0.165185
vt 2.84444 -0.165185
vt 2.84444 -0.165978
vt -1.12531e-17 -0.165978
# индексы вершин текстуры с 1075 по 1078

f  594/1075/176 593/1076/175 597/1077/179 598/1078/180
vt -1.12531e-17 0.215364
vt 2.84444 0.215364
vt 2.84444 0.216322
vt -1.13031e-17 0.216322
# индексы вершин текстуры с 1079 по 1082

f  598/1079/180 597/1080/179 601/1081/183 602/1082/184
vt -1.13031e-17 0.216322
vt 2.84444 0.216322
vt 2.84444 0.217393
vt -1.13591e-17 0.217393
# индексы вершин текстуры с 1083 по 1086

f  602/1083/184 601/1084/183 605/1085/187 606/1086/188
vt -1.34632e-17 0.257661
vt 2.84444 0.257661
vt 2.84444 0.258732
vt -1.35192e-17 0.258732
# индексы вершин текстуры с 1087 по 1090

f  607/1087/189 608/1088/190 609/1089/191 610/1090/192
vt -1.35192e-17 0.258732
vt 2.84444 0.258732
vt 2.84444 0.25969
vt -1.35692e-17 0.25969
# индексы вершин текстуры с 1091 по 1094

f  610/1091/192 609/1092/191 613/1093/195 614/1094/196
vt -1.35692e-17 -0.165978
vt 2.84444 -0.165978
vt 2.84444 -0.165185
vt -1.3608e-17 -0.165185
# индексы вершин текстуры с 1095 по 1098

f  614/1095/196 613/1096/195 617/1097/199 618/1098/200
vt -1.3608e-17 -0.165185
vt 2.84444 -0.165185
vt 2.84444 -0.164196
vt -1.36314e-17 -0.164196
# индексы вершин текстуры с 1099 по 1102

f  618/1099/200 617/1100/199 621/1101/203 622/1102/204
vt -1.38189e-17 -0.150804
vt 2.84444 -0.150804
vt 2.84444 -0.149815
vt -1.38423e-17 -0.149815
# индексы вершин текстуры с 1103 по 1106

f  623/1103/205 624/1104/206 625/1105/207 626/1106/208
vt -1.38423e-17 -0.149815
vt 2.84444 -0.149815
vt 2.84444 -0.149022
vt -1.38811e-17 -0.149022
# индексы вершин текстуры с 1107 по 1110

f  626/1107/208 625/1108/207 629/1109/211 630/1110/212
vt -1.38811e-17 0.265659
vt 2.84444 0.265659
vt 2.84444 0.266617
vt -1.39312e-17 0.266617
# индексы вершин текстуры с 1111 по 1114

f  630/1111/212 629/1112/211 633/1113/215 634/1114/216
vt -1.39312e-17 0.266617
vt 2.84444 0.266617
vt 2.84444 0.267689
vt -1.39872e-17 0.267689
# индексы вершин текстуры с 1115 по 1118

f  634/1115/216 633/1116/215 637/1117/219 638/1118/220
vt -1.51884e-17 0.290679
vt 2.84444 0.290679
vt 2.84444 0.29175
vt -1.52444e-17 0.29175
# индексы вершин текстуры с 1119 по 1122

f  639/1119/221 640/1120/222 641/1121/223 642/1122/224
vt -1.52444e-17 0.29175
vt 2.84444 0.29175
vt 2.84444 0.292708
vt -1.52944e-17 0.292708
# индексы вершин текстуры с 1123 по 1126

f  642/1123/224 641/1124/223 645/1125/227 646/1126/228
vt -1.52944e-17 -0.149022
vt 2.84444 -0.149022
vt 2.84444 -0.149815
vt -1.53332e-17 -0.149815
# индексы вершин текстуры с 1127 по 1130

f  646/1127/228 645/1128/227 649/1129/231 650/1130/232
vt -1.53332e-17 -0.149815
vt 2.84444 -0.149815
vt 2.84444 -0.150804
vt -1.53567e-17 -0.150804
# индексы вершин текстуры с 1131 по 1134

f  650/1131/232 649/1132/231 653/1133/235 654/1134/236
vt -1.55441e-17 -0.164194
vt 2.84444 -0.164194
vt 2.84444 -0.165184
vt -1.55676e-17 -0.165184
# индексы вершин текстуры с 1135 по 1138

f  655/1135/237 656/1136/238 657/1137/239 658/1138/240
vt -1.55676e-17 -0.165184
vt 2.84444 -0.165184
vt 2.84444 -0.165977
vt -1.56064e-17 -0.165977
# индексы вершин текстуры с 1139 по 1142

f  658/1139/240 657/1140/239 661/1141/243 662/1142/244
vt -1.56064e-17 0.298678
vt 2.84444 0.298678
vt 2.84444 0.299636
vt -1.56565e-17 0.299636
# индексы вершин текстуры с 1143 по 1146

f  662/1143/244 661/1144/243 665/1145/247 666/1146/248
vt -1.56565e-17 0.299636
vt 2.84444 0.299636
vt 2.84444 0.300708
vt -1.57125e-17 0.300708
# индексы вершин текстуры с 1147 по 1150

f  666/1147/248 665/1148/247 669/1149/251 670/1150/252
vt -1.78169e-17 0.340983
vt 2.84444 0.340983
vt 2.84444 0.342054
vt -1.78729e-17 0.342054
# индексы вершин текстуры с 1151 по 1154

f  671/1151/253 672/1152/254 673/1153/255 674/1154/256
vt -1.78729e-17 0.342054
vt 2.84444 0.342054
vt 2.84444 0.343011
vt -1.79229e-17 0.343011
# индексы вершин текстуры с 1155 по 1158

f  674/1155/256 673/1156/255 677/1157/259 678/1158/260
vt -1.79229e-17 -0.165951
vt 2.84444 -0.165951
vt 2.84444 -0.165159
vt -1.79617e-17 -0.165159
# индексы вершин текстуры с 1159 по 1162

f  678/1159/260 677/1160/259 681/1161/263 682/1162/264
vt -1.79617e-17 -0.165159
vt 2.84444 -0.165159
vt 2.84444 -0.16417
vt -1.79851e-17 -0.16417
# индексы вершин текстуры с 1163 по 1166

f  682/1163/264 681/1164/263 685/1165/267 686/1166/268
vt -1.81722e-17 -0.150804
vt 2.84444 -0.150804
vt 2.84444 -0.149815
vt -1.81956e-17 -0.149815
# индексы вершин текстуры с 1167 по 1170

f  687/1167/269 688/1168/270 689/1169/271 690/1170/272
vt -1.81956e-17 -0.149815
vt 2.84444 -0.149815
vt 2.84444 -0.149022
vt -1.82344e-17 -0.149022
# индексы вершин текстуры с 1171 по 1174

f  690/1171/272 689/1172/271 693/1173/275 694/1174/276
vt -1.82344e-17 0.348973
vt 2.84444 0.348973
vt 2.84444 0.349931
vt -1.82844e-17 0.349931
# индексы вершин текстуры с 1175 по 1178

f  694/1175/276 693/1176/275 697/1177/279 698/1178/280
vt -1.82844e-17 0.349931
vt 2.84444 0.349931
vt 2.84444 0.351002
vt -1.83404e-17 0.351002
# индексы вершин текстуры с 1179 по 1182

f  698/1179/280 697/1180/279 701/1181/283 702/1182/284
vt -1.95417e-17 0.373992
vt 2.84444 0.373992
vt 2.84444 0.375064
vt -1.95977e-17 0.375064
# индексы вершин текстуры с 1183 по 1186

f  703/1183/285 704/1184/286 705/1185/287 706/1186/288
vt -1.95977e-17 0.375064
vt 2.84444 0.375064
vt 2.84444 0.376021
vt -1.96477e-17 0.376021
# индексы вершин текстуры с 1187 по 1190

f  706/1187/288 705/1188/287 709/1189/291 710/1190/292
vt -1.96477e-17 -0.149022
vt 2.84444 -0.149022
vt 2.84444 -0.149815
vt -1.96865e-17 -0.149815
# индексы вершин текстуры с 1191 по 1194

f  710/1191/292 709/1192/291 713/1193/295 714/1194/296
vt -1.96865e-17 -0.149815
vt 2.84444 -0.149815
vt 2.84444 -0.150804
vt -1.97099e-17 -0.150804
# индексы вершин текстуры с 1195 по 1198

f  714/1195/296 713/1196/295 717/1197/299 718/1198/300
vt -1.98974e-17 -0.164196
vt 2.84444 -0.164196
vt 2.84444 -0.165185
vt -1.99208e-17 -0.165185
# индексы вершин текстуры с 1199 по 1202

f  719/1199/301 720/1200/302 721/1201/303 722/1202/304
vt -1.99208e-17 -0.165185
vt 2.84444 -0.165185
vt 2.84444 -0.165978
vt -1.99596e-17 -0.165978
# индексы вершин текстуры с 1203 по 1206

f  722/1203/304 721/1204/303 725/1205/307 726/1206/308
vt -1.99596e-17 0.381991
vt 2.84444 0.381991
vt 2.84444 0.382949
vt -2.00097e-17 0.382949
# индексы вершин текстуры с 1207 по 1210

f  726/1207/308 725/1208/307 729/1209/311 730/1210/312
vt -2.00097e-17 0.382949
vt 2.84444 0.382949
vt 2.84444 0.38402
vt -2.00657e-17 0.38402
# индексы вершин текстуры с 1211 по 1214

f  730/1211/312 729/1212/311 733/1213/315 734/1214/316
vt -1.17235e-18 0.0224367
vt 2.84444 0.0224367
vt 2.84444 0.0235082
vt -1.22834e-18 0.0235082
# индексы вершин текстуры с 1215 по 1218

f  735/1215/317 736/1216/318 420/1217/2 419/1218/1
